<?xml version="1.0" encoding="UTF-8" standalone="no"?>
<!-- Created with Inkscape (http://www.inkscape.org/) -->
<svg
   xmlns:dc="http://purl.org/dc/elements/1.1/"
   xmlns:cc="http://web.resource.org/cc/"
   xmlns:rdf="http://www.w3.org/1999/02/22-rdf-syntax-ns#"
   xmlns:svg="http://www.w3.org/2000/svg"
   xmlns="http://www.w3.org/2000/svg"
   xmlns:sodipodi="http://sodipodi.sourceforge.net/DTD/sodipodi-0.dtd"
   xmlns:inkscape="http://www.inkscape.org/namespaces/inkscape"
   id="svg2211"
   sodipodi:version="0.32"
   inkscape:version="0.45.1"
   width="400.55505"
   height="561.88855"
   version="1.0"
   sodipodi:docbase="/Users/johnolsen/Desktop"
   sodipodi:docname="FunDraw_dot_com_Coloring_Book_Dog_-_Ilio.svg"
   inkscape:output_extension="org.inkscape.output.svg.inkscape">
  <metadata
     id="metadata2216">
    <rdf:RDF>
      <cc:Work
         rdf:about="">
        <dc:format>image/svg+xml</dc:format>
        <dc:type
           rdf:resource="http://purl.org/dc/dcmitype/StillImage" />
      </cc:Work>
    </rdf:RDF>
  </metadata>
  <defs
     id="defs2214" />
  <sodipodi:namedview
     inkscape:window-height="820"
     inkscape:window-width="972"
     inkscape:pageshadow="2"
     inkscape:pageopacity="0.0"
     guidetolerance="10.0"
     gridtolerance="10.0"
     objecttolerance="10.0"
     borderopacity="1.0"
     bordercolor="#666666"
     pagecolor="#ffffff"
     id="base"
     inkscape:zoom="0.63316583"
     inkscape:cx="253.5"
     inkscape:cy="298.5"
     inkscape:window-x="708"
     inkscape:window-y="22"
     inkscape:current-layer="svg2211" />
  <path
     style="fill:#000000"
     d="M 204.82696,561.07034 C 195.36322,559.6816 192.76045,558.05456 186.30902,549.49444 C 183.05604,545.17819 178.73074,539.47474 176.69725,536.82011 C 174.66376,534.16549 173,531.27919 173,530.40613 C 173,529.53307 172.2628,527.14786 171.36178,525.10565 C 169.87714,521.74063 169.28195,521.34025 165.01266,520.83462 C 162.05687,520.48455 158.69804,520.8292 155.99721,521.75972 C 153.62971,522.57539 151.13116,523.02728 150.44487,522.76393 C 149.05903,522.23213 148.03448,525.10493 148.01365,529.58099 C 147.99272,534.07961 144.32502,540.76944 141.16107,542.07999 C 139.64159,542.70938 136.62125,543.23449 134.44919,543.2469 C 121.54144,543.32064 116.23624,543.87029 113.29966,545.43809 C 109.57549,547.42638 104.79164,547.64474 101.68426,545.96829 C 100.48292,545.32016 96.787648,544.75766 93.472558,544.71829 C 84.966208,544.61727 78.352658,541.11617 74.982258,534.92983 C 71.588988,528.70154 63.304128,522.14174 58.856838,522.16202 C 54.115289,522.18365 53.200289,523.0966 53.359789,527.64671 L 53.499999,531.64671 L 45.332389,531.93582 C 38.377609,532.182 35.853229,531.77472 28.332389,529.19308 C 23.202569,527.43219 17.403989,526.15177 14.499999,526.13866 C 11.749999,526.12624 8.9869187,525.78548 8.3598087,525.3814 C 6.2283487,524.00799 -1.3022461e-06,512.32206 -1.3022461e-06,509.69633 C -1.3022461e-06,503.75918 2.4105587,500.78435 12.607119,494.13812 C 18.771709,490.11997 25.609149,484.47923 30.749999,479.17064 C 35.287499,474.4851 38.999999,470.36029 38.999999,470.0044 C 38.999999,469.64851 37.312899,469.73784 35.250879,470.2029 C 30.985779,471.16483 29.014069,470.03961 30.926639,467.73511 C 31.609659,466.91211 32.789699,460.48054 33.548949,453.44273 C 35.639899,434.06059 37.182409,428.38748 42.486639,420.57126 C 45.304949,416.41825 45.674069,412.0534 43.632719,407.01883 C 42.880709,405.16417 41.981619,400.77684 41.634729,397.26922 L 41.004019,390.89174 L 44.752009,391.51869 C 46.813409,391.86351 49.491849,392.41797 50.704109,392.75081 C 52.758789,393.31494 52.871799,393.09465 52.371039,389.50134 C 52.075589,387.38129 51.377889,384.43637 50.820609,382.95707 C 49.348059,379.04821 50.520339,377.84731 54.034599,379.6646 L 56.955688,381.17516 L 56.377099,378.28221 C 55.677909,374.78625 57.530358,373.2485 59.757748,375.47589 C 61.178848,376.89698 61.539688,376.57525 63.661788,371.99491 C 64.947798,369.21918 65.999998,366.3756 65.999998,365.67585 C 65.999998,363.45906 74.534388,344.64164 77.577998,340.14762 C 79.185098,337.77466 81.174998,335.52466 81.999998,335.14763 C 86.634518,333.02958 87.529708,332.1949 87.824008,329.71726 C 88.038498,327.91148 88.605278,327.165 89.500888,327.50868 C 91.552098,328.2958 93.169118,325.66872 92.434648,322.74236 C 91.442218,318.78819 93.802148,319.46932 99.167318,324.68555 C 103.98384,329.36836 105.75591,329.29463 104.54297,324.46188 C 104.07447,322.59525 104.44823,321.37777 105.90701,320.01872 C 108.14869,317.93028 110,317.57821 110,319.24034 C 110,319.84184 113.2625,317.31099 117.25,313.61623 C 126.42693,305.11301 140.59112,294.51859 149,289.8681 C 152.575,287.89097 156.971,284.91243 158.76889,283.24913 C 160.56677,281.58583 162.65197,279.86985 163.40266,279.43583 C 164.15334,279.00181 166.88406,275.04671 169.47093,270.64671 C 172.05779,266.24671 174.88149,261.85738 175.74582,260.89265 C 177.01178,259.47963 177.09622,258.6533 176.1801,256.64265 C 174.94999,253.94284 173.09455,253.45216 171.21667,255.33004 C 169.63088,256.91583 169.00234,256.10333 167.85108,250.97942 C 166.8835,246.67307 167.57951,237.14671 168.8617,237.14671 C 169.23242,237.14671 171.27891,238.33123 173.40947,239.77899 L 177.28321,242.41126 L 176.6959,240.02899 C 173.75048,228.08158 175.72923,209.25409 181.3079,196.14671 C 184.163,189.4385 184.40303,188.1447 183.58144,183.89158 C 182.9095,180.41312 182.23829,179.20495 181.08144,179.39158 C 179.86256,179.58822 179.38033,178.45717 178.97802,174.45807 C 178.44698,169.17924 177,165.96441 177,170.06338 C 177,174.51687 174.59936,171.40895 172.58305,164.3451 C 171.19022,159.46554 170.08273,157.24305 169.12543,157.4064 C 168.3508,157.53857 166.567,155.62171 165.16143,153.14671 C 163.03712,149.40611 162.62067,147.42938 162.69364,141.43314 C 162.75328,136.53218 162.41572,134.28804 161.64071,134.43314 C 160.93185,134.56586 160.38452,132.62896 160.19497,129.31696 L 159.88995,123.98721 L 155.52441,128.67507 C 153.12336,131.25339 150.68408,133.0695 150.10379,132.71086 C 148.37495,131.64237 142.14765,119.88611 139.95235,113.54637 C 134.462,97.690958 137.5224,70.656486 147.27797,48.834546 C 150.65002,41.291696 153.65788,39.01888 161.95752,37.742312 C 164.40915,37.365226 168.32451,36.21205 170.65831,35.179699 C 174.46016,33.49796 175.38381,32.34253 179.53709,24.072862 C 187.30553,8.6049679 191.95329,2.1467029 195.3165,2.1467029 C 196.39883,2.1467029 199.74415,4.2481599 202.75055,6.8166069 C 208.72116,11.917457 211.3174,16.751184 213.39207,26.629157 C 214.08719,29.938807 215.17115,33.606834 215.80087,34.780328 C 217.28295,37.542244 222.74342,38.562152 228.19256,37.094853 C 233.48278,35.670344 241.27187,35.686651 243.96482,37.127873 C 247.04051,38.773934 255.91638,35.453196 257.27879,32.146703 C 263.88655,16.110048 269.91298,4.3603109 272.62428,2.2276049 C 276.6903,-0.97073107 286.23515,-0.68484507 292.62405,2.8266349 C 299.8646,6.8062059 301.55369,8.3091719 308.06238,16.563804 C 311.32893,20.706594 315.31057,24.773065 316.91047,25.600406 C 318.51037,26.427747 323.63842,27.538611 328.30613,28.068993 C 338.89393,29.272061 342.5417,30.77892 347.10272,35.833687 C 350.08777,39.141887 350.81693,40.839664 351.35576,45.736556 C 352.02991,51.863116 350.83229,64.977586 349.02621,71.246116 C 348.45582,73.225796 345.65872,78.625796 342.81042,83.246118 C 335.7837,94.644398 330,105.94709 330,108.28065 C 330,111.54869 324.21323,128.30671 320.7693,135.01203 C 317.09029,142.17506 310.74723,149.91211 307.56049,151.12371 C 305.97296,151.72729 304.98215,153.70196 303.6075,159.00201 C 302.59855,162.89206 301.16342,166.87851 300.41832,167.86077 C 299.67323,168.84304 299.0493,170.60673 299.0318,171.78008 C 299.01279,173.05573 298.1959,174.12372 297,174.43646 C 295.59687,174.80339 294.99543,175.80811 294.98469,177.80309 C 294.96184,182.04548 293.56075,183.85698 291.57622,182.20996 C 290.19348,181.06239 290,181.32192 290,184.32427 C 290,189.22805 288.07057,190.84084 285.69499,187.92276 L 283.84208,185.64671 L 284.37164,188.14671 C 284.6629,189.52171 285.21299,194.80921 285.59408,199.89671 C 286.19583,207.93014 286.08045,209.14671 284.7168,209.14671 C 283.85322,209.14671 282.94085,208.35921 282.68933,207.39671 C 282.4378,206.43421 282.17485,207.44671 282.105,209.64671 C 282.03514,211.84671 281.69906,215.33421 281.35815,217.39671 C 280.81036,220.71083 280.9763,221.14671 282.78575,221.14671 C 283.91184,221.14671 285.75646,222.38421 286.88491,223.89671 C 288.86927,226.55642 288.93768,226.57283 288.96832,224.39671 C 289.01546,221.04872 291.01053,221.59698 299.54009,227.3019 L 307.24774,232.45709 L 306.58217,239.8019 C 306.06765,245.47979 306.20975,247.14798 307.2083,247.15229 C 313.44341,247.17921 323,253.47709 323,257.55917 C 323,260.72196 320.62587,263.60086 318.64461,262.84057 C 317.28872,262.32027 317,262.90619 317,266.17809 C 317,269.89785 317.18331,270.14671 319.92327,270.14671 C 323.13186,270.14671 328.52847,274.0857 329.49589,277.13376 C 329.83188,278.19236 329.18144,280.83089 328.02635,283.09505 C 326.07701,286.91608 326.04935,287.34146 327.5602,290.26313 C 329.08397,293.20976 329.02819,293.81233 326.47313,302.00791 C 324.99184,306.75925 322.69683,312.78421 321.37309,315.39671 L 318.96631,320.14671 L 321.73315,320.15045 C 325.99105,320.1562 330.70315,323.51869 331.49302,327.11494 C 332.23991,330.51548 330.79924,333.14671 328.19046,333.14671 C 327.03773,333.14671 327.33324,333.88509 329.31291,335.95143 C 332.74496,339.53372 332.69067,340.51872 328.91288,343.20875 L 325.82575,345.40697 L 320.91579,343.10727 C 318.2153,341.84243 315.73598,341.07739 315.40619,341.40719 C 315.0764,341.73698 316.63974,346.598 318.8803,352.20945 C 322.88025,362.2273 323.31471,365.48271 320.32002,362.99734 C 319.00175,361.90327 318.92092,362.35589 319.65905,366.69878 C 320.79619,373.38939 320.7242,384.52996 319.53983,385.14671 C 319.01174,385.42171 317.61076,384.20895 316.42654,382.45169 L 314.27342,379.25667 L 313.65318,385.19079 C 313.31205,388.45455 313.44262,392.14231 313.94334,393.38581 C 316.02041,398.54403 324.91293,428.30428 326.86994,436.64671 C 328.03113,441.59671 329.44906,449.89076 330.02089,455.07794 C 330.84678,462.56963 331.7038,465.65438 334.18828,470.07794 C 338.80997,478.30674 343.67296,483.93922 348.11044,486.20305 L 352.04803,488.21186 L 355.69539,485.42928 C 358.68888,483.14554 360.25319,482.67699 364.42137,482.81563 C 367.21462,482.90854 370.4,483.01493 371.5,483.05207 C 372.6,483.08921 375.88495,482.85575 378.79988,482.53327 C 383.39932,482.02444 384.62038,482.29148 388.03902,484.55383 C 392.67222,487.61994 396.97126,495.41693 399.42646,505.20678 C 401.79546,514.65292 400.28672,527.83923 396.2862,532.65241 C 394.75379,534.49612 392.76406,537.04908 391.86458,538.32566 L 390.22917,540.64671 L 364.11198,540.4305 C 348.48511,540.30114 337.21915,539.79918 336.06371,539.18081 C 335.00161,538.61239 329.10811,534.14439 322.96703,529.25191 C 316.82595,524.35943 309.48361,519.1188 306.65072,517.60606 C 299.37385,513.72028 298,512.29488 298,508.63077 C 298,500.43818 287.29909,475.63344 276.86799,459.64671 C 273.99705,455.24671 268.60644,448.67139 264.88885,445.03488 C 259.38668,439.65271 257.33979,438.29675 253.88286,437.74397 C 250.0923,437.13783 249.08385,437.44525 244.49488,440.6058 C 241.66719,442.5533 238.60903,444.14671 237.69897,444.14671 C 236.13075,444.14671 229.94067,446.72766 220.05959,451.50144 C 217.61736,452.68134 215.42779,454.25291 215.19388,454.99382 C 214.85844,456.05634 215.20165,456.10916 216.81856,455.24382 C 220.16519,453.45275 224.38916,453.98271 228,456.64671 C 229.86371,458.02171 232.24417,459.14671 233.28991,459.14671 C 236.54041,459.14671 240.94262,463.09996 243.657,468.45653 C 245.85598,472.79602 246.24933,474.86462 246.19799,481.81942 C 246.15424,487.74528 245.58247,491.30219 244.15483,494.5296 L 242.17242,499.01117 L 244.98776,499.9926 C 246.5362,500.53239 249.64413,502.63729 251.89427,504.67015 C 254.37499,506.91134 256.58342,508.13681 257.50457,507.78333 C 259.7557,506.91949 263.62366,509.02532 264.88973,511.80403 C 265.57243,513.3024 266,521.19264 266,532.29255 L 266,550.34429 L 262.84007,553.29611 C 261.03395,554.98328 258.78469,556.14086 257.59007,555.99801 C 256.44053,555.86056 254.375,556.36411 253,557.11701 C 251.625,557.86992 248.08976,558.42274 245.14391,558.3455 C 241.97905,558.26252 238.55002,558.84516 236.7622,559.76968 C 233.17822,561.62303 225.8761,560.90728 223.88438,558.5074 C 222.78387,557.18137 222.45822,557.1654 221.55261,558.39307 C 218.83055,562.08319 215.43405,562.62687 204.82696,561.07034 z M 217.76395,558.327 C 219.38346,557.28201 221.38096,541.20343 220.70585,534.64671 C 220.05202,528.29671 218.60207,525.2811 214.69568,522.14671 C 211.04037,519.21377 203.43077,518.68495 200.30598,521.14671 C 199.25878,521.97171 199.46163,521.63421 200.75675,520.39671 C 204.48306,516.8362 211.88518,517.22899 216.44091,521.22898 C 220.96601,525.20207 221.98601,529.13095 222.00126,542.64671 L 222.01367,553.64671 L 225.50912,556.02718 C 228.22488,557.87666 229.81245,558.27655 232.62632,557.81992 C 239.9684,556.62847 241.9925,552.1561 241.98255,537.14671 C 241.97016,518.42708 235.14855,504.16499 226.20034,504.15045 C 223.44127,504.14596 218.34785,506.6054 215.25,509.438 C 214.0125,510.56953 213.00307,511.0794 213.00683,510.57102 C 213.01059,510.06265 214.58559,508.5762 216.50683,507.26781 C 220.47628,504.56455 220.77874,503.63384 218.14573,502.2247 C 213.09653,499.52245 209.92509,452.89477 213.5383,434.48468 C 214.38437,430.1738 215.72106,421.47171 216.50874,415.14671 C 218.15712,401.91022 219.25937,397.54391 220.86337,397.89671 C 223.32049,398.43715 221.78142,396.32878 217.4461,393.21538 C 212.57428,389.71671 211.88018,386.88073 215.76022,386.32716 C 220.97926,385.58256 216.4039,381.94853 208.0682,380.21771 C 205.08072,379.59738 202.04322,378.59754 201.3182,377.99583 C 199.17212,376.21474 199.76768,371.71359 202.48751,369.15844 C 204.27377,367.48034 204.68674,366.47419 203.95243,365.58939 C 203.39,364.9117 203.05812,363.7956 203.21491,363.10915 C 203.38221,362.37676 201.6407,361.35975 199,360.64774 C 187.37943,357.51446 184.34915,354.60438 189.75,351.76466 L 192.5,350.31874 L 189.79102,349.63461 C 186.00562,348.67865 184.57102,346.74762 186.47331,345.16886 C 187.79068,344.07554 187.73189,343.62132 185.98564,341.40132 C 184.89354,340.01294 184,338.05351 184,337.04704 C 184,336.04056 183.0554,334.71154 181.90089,334.09367 C 180.26602,333.21871 179.90058,332.27101 180.24851,329.80849 C 180.49421,328.06951 181.02435,325.89204 181.42661,324.96967 C 182.00886,323.63457 181.73773,323.40254 180.09681,323.83164 C 177.66361,324.46794 176.61323,322.31346 175.54356,314.49224 C 175.02387,310.69244 174.35478,309.21124 172.99769,308.85636 C 170.64839,308.242 169.23224,300.12718 170.85339,296.56915 C 171.91021,294.24968 171.79863,294.14168 168.22856,294.02829 C 166.17785,293.96316 164.10908,293.98096 163.63129,294.06786 C 162.81441,294.21643 163.39714,289.04123 164.68775,284.68548 C 165.2453,282.80375 165.1722,282.79292 162.88443,284.41832 C 161.57299,285.35005 156.225,288.56228 151,291.55659 C 145.775,294.55091 140.50318,297.93655 139.28485,299.08024 C 138.06652,300.22393 135.36652,302.31232 133.28485,303.72111 C 131.20318,305.12989 125.27651,310.18947 120.11447,314.96462 C 114.95243,319.73977 110.3842,323.54897 109.96285,323.4295 C 109.13911,323.19595 106,329.23068 106,331.04784 C 106,333.45079 102.50588,331.92944 99.227078,328.09889 C 97.321448,325.8726 95.589978,324.2234 95.379358,324.43402 C 95.168738,324.64463 95.643738,326.96783 96.434898,329.59667 L 97.873388,334.37639 L 95.436688,332.08724 C 94.096508,330.8282 92.999998,330.3124 92.999998,330.94101 C 92.999998,331.56962 92.360808,331.83866 91.579568,331.53887 C 90.645438,331.18041 90.046308,331.79029 89.829568,333.32026 C 89.601588,334.92958 88.729368,335.74998 86.999998,335.98173 C 85.624998,336.166 83.282078,337.46892 81.793518,338.87713 C 78.672888,341.82929 71.761968,357.14463 67.006518,371.64671 C 65.202978,377.14671 63.556208,381.84171 63.347008,382.08004 C 63.137818,382.31838 62.434168,381.98088 61.783328,381.33004 C 59.709198,379.25591 59.000128,380.03577 58.995028,384.39671 L 58.990068,388.64671 L 56.434889,385.64671 L 53.879709,382.64671 L 54.389379,386.14671 C 56.360559,399.68318 56.361449,399.22149 54.365479,398.47321 C 53.339469,398.08857 51.149999,396.95943 49.499999,395.96402 C 47.849999,394.96861 46.098399,394.1525 45.607549,394.15045 C 44.489929,394.14577 45.619169,405.5666 46.989489,408.12706 C 48.828259,411.56284 48.153889,417.64085 45.499999,421.55157 C 44.124999,423.57775 42.999999,425.50962 42.999999,425.84463 C 42.999999,426.17963 41.925109,428.74715 40.611339,431.55022 C 37.761989,437.62965 36.936939,442.16325 36.117069,456.24609 L 35.499999,466.84547 L 39.749999,466.36604 C 44.230059,465.86065 44.867709,466.57779 42.643229,469.61995 C 40.234509,472.91408 43.086269,481.69802 51.579959,497.14671 C 54.452669,502.37171 57.524958,509.13327 58.407278,512.1724 C 59.692808,516.60036 60.660788,518.04776 63.279838,519.45821 C 66.892378,521.40369 71.303318,525.36782 74.754548,529.77057 C 75.994558,531.35245 78.129248,534.05833 79.498308,535.78365 C 82.585828,539.67459 90.416728,543.50992 93.628018,542.70394 C 96.811498,541.90493 97.489438,538.82703 97.495178,525.14671 C 97.499518,514.78366 97.237468,513.08672 94.844608,507.98253 C 91.812298,501.51433 89.246288,499.69032 84.446018,500.59086 C 81.503478,501.14288 80.676868,502.06914 77.551318,508.31675 C 73.500018,516.41483 72.674298,515.82516 76.560928,507.60949 C 79.181038,502.07104 83.364808,498.148 86.654368,498.14507 C 87.669468,498.14416 90.120108,496.42151 92.100248,494.31695 C 96.100738,490.0651 102.03759,487.88488 108.5,488.29437 C 110.7,488.43378 114.20691,488.45758 116.29313,488.34727 L 120.08627,488.14671 L 119.69077,481.39671 C 119.09397,471.21121 119.86302,465.15691 121.66575,465.84869 C 122.86479,466.3088 123.03371,465.68774 122.56818,462.53074 L 121.99544,458.64671 L 123.93643,462.63823 C 125.22661,465.2914 126.04906,466.12964 126.38933,465.13823 C 128.45991,459.10547 129.10998,453.99804 128.51472,448.43959 C 128.14407,444.97851 128.05744,442.14671 128.3222,442.14671 C 128.58697,442.14671 129.74021,443.60921 130.88495,445.39671 L 132.96631,448.64671 L 132.91435,443.14671 C 132.88577,440.12171 131.83097,433.59671 130.57035,428.64671 C 129.30972,423.69671 128.40164,419.49825 128.55239,419.31681 C 128.70313,419.13536 130.00456,419.75882 131.44444,420.70227 C 138.31816,425.20609 134.35996,416.59208 123.99096,404.48164 C 120.14593,399.99085 117,396.09548 117,395.82526 C 117,395.55504 117.9,395.5693 119,395.85696 C 121.97201,396.63416 121.4207,395.41562 118,393.64671 C 115.00008,392.09539 115,392.09509 114.96511,382.87103 C 114.93484,374.8675 114.1669,368.61712 111.62024,355.64671 C 111.29627,353.99671 111.70405,354.67171 112.52641,357.14671 C 114.82868,364.07572 117.15112,378.89742 116.90384,385.08322 C 116.6949,390.30973 116.90913,390.87385 120.44071,394.39671 C 122.50832,396.45921 124.32891,398.14671 124.48646,398.14671 C 124.64401,398.14671 125.09058,396.02837 125.47883,393.43929 C 126.29149,388.02009 129.36107,380.98636 131.81487,378.92068 C 134.94853,376.28266 141.72997,374.70265 144.50058,375.96502 C 146.75025,376.99004 147.01182,376.88115 147.11831,374.87527 C 147.21265,373.09834 147.39133,373.25468 148,375.64671 C 148.41985,377.29671 148.78809,379.54671 148.8183,380.64671 C 148.86975,382.51996 148.81827,382.51048 148.006,380.49716 C 146.93236,377.83599 140.35656,375.39015 138.70794,377.03877 C 138.09857,377.64814 136.59564,378.14671 135.36809,378.14671 C 134.05071,378.14671 132.29667,379.32571 131.08733,381.02406 C 128.85892,384.15358 126,393.89403 126,398.35681 C 126,401.63494 125.7838,401.6948 122.21482,399.4047 C 120.72167,398.4466 122.77068,401.2591 126.76817,405.6547 C 133.93603,413.5364 136.93279,419.2735 135.64072,422.64059 C 135.21399,423.75264 134.3611,424.07871 133.00493,423.64827 C 130.56832,422.87493 130.56163,422.14303 133.08843,432.7822 C 135.88386,444.55247 134.57456,457.23159 131.31746,449.93213 C 130.49696,448.09334 130.22353,448.8145 129.70607,454.18213 C 129.3633,457.73765 128.33034,463.12171 127.41061,466.14671 C 126.04118,470.65076 125.5937,471.28455 124.93947,469.64671 C 124.50008,468.54671 124.10894,468.03931 124.07029,468.51915 C 124.03163,468.999 123.325,468.8314 122.5,468.14671 C 121.18196,467.05283 121,468.25103 121,478.02427 C 121,488.40992 121.13003,489.14671 122.96287,489.14671 C 124.04245,489.14671 126.62995,490.89038 128.71287,493.02154 C 131.24161,495.60883 133.76459,497.12263 136.30578,497.57731 C 138.39895,497.95184 140.95287,499.09958 141.98115,500.12786 C 143.88754,502.03425 146.47665,509.64702 147.51419,516.39671 C 147.98798,519.47898 148.50114,520.14671 150.39609,520.14671 C 155.90518,520.14671 158.42689,518.26903 160.84208,512.36856 C 162.13022,509.22154 163.63403,504.84671 164.18387,502.64671 C 164.73372,500.44671 166.45554,496.07431 168.01013,492.93026 C 170.69858,487.49308 170.77299,486.9801 169.53318,482.43026 C 168.81625,479.79931 167.68463,476.29671 167.01845,474.64671 C 163.84666,466.79073 158.78654,447.8212 157.94895,440.64671 C 155.785,422.11108 155.03996,418.73009 152.06474,413.94396 C 149.21299,409.35645 149.14226,408.95498 150.12172,402.91493 C 150.68077,399.46741 150.89847,394.62171 150.60549,392.14671 C 150.13367,388.16087 150.18814,387.98948 151.0822,390.64671 C 151.65218,392.34071 151.82411,397.02019 151.47714,401.39592 C 150.94733,408.07772 151.13017,409.52404 152.80454,411.89592 C 155.0473,415.07298 160,433.98351 160,439.36982 C 160,444.85844 162.4738,455.42328 166.50408,467.14671 C 173.14798,486.47275 174.27433,492.93107 173.6546,508.14671 C 173.22389,518.72168 173.41073,522.18838 174.51694,524.14671 C 175.29365,525.52171 175.94508,527.63231 175.96456,528.83694 C 175.98405,530.04156 178.14905,533.86656 180.77567,537.33694 C 183.40228,540.80731 186.27785,544.77171 187.16581,546.14671 C 191.43154,552.75215 195.55209,556.27305 200.5,557.54045 C 206.39328,559.05001 215.96744,559.48621 217.76395,558.327 z M 149.15789,385.14671 C 149.15789,383.77171 149.38487,383.20921 149.66228,383.89671 C 149.93969,384.58421 149.93969,385.70921 149.66228,386.39671 C 149.38487,387.08421 149.15789,386.52171 149.15789,385.14671 z M 145.78267,369.64671 C 145.44278,367.99671 145.54794,366.50661 146.01635,366.33538 C 146.48476,366.16414 146.28026,364.3582 145.5619,362.32217 C 144.84355,360.28613 143.92682,356.67305 143.52473,354.2931 C 142.84638,350.27794 142.9281,350.03786 144.65802,350.96369 C 147.19385,352.32082 150.45482,356.02522 149.74156,356.73849 C 149.42282,357.05722 148.65975,356.37946 148.04584,355.23236 C 147.43192,354.08525 146.29913,353.14671 145.52852,353.14671 C 144.37347,353.14671 144.45601,354.33209 145.99853,359.89671 C 147.02764,363.60921 148.20044,367.50803 148.60476,368.56075 C 149.09496,369.83711 148.97531,370.24949 148.24562,369.79851 C 147.64093,369.4248 146.98343,369.91065 146.77601,370.88447 C 146.52758,372.05081 146.19169,371.63227 145.78267,369.64671 z M 150.86612,359.64671 C 150.51748,359.09671 150.65993,355.72171 151.18267,352.14671 C 152.04061,346.27924 151.79781,338.83171 150.45633,329.8675 L 149.97434,326.64671 L 151.41109,330.14671 C 152.25803,332.20988 152.83848,336.93088 152.82503,341.64671 C 152.79748,351.30361 151.73956,361.02463 150.86612,359.64671 z M 251.71495,554.34404 C 254.95357,552.28605 257.00819,523.73878 254.51467,515.44413 C 252.51075,508.77812 248.86982,504.4876 243.97163,503.02006 C 240.68812,502.0363 239.69338,502.1176 237.51009,503.54814 L 234.92952,505.23899 L 236.82326,507.94285 C 241.03531,513.95676 243.26642,522.25938 243.7305,533.64671 C 243.97706,539.69671 243.71361,546.66063 243.14505,549.12209 C 242.37329,552.4633 242.41399,553.7899 243.30566,554.35678 C 244.85703,555.34306 250.15543,555.33504 251.71495,554.34404 z M 261.96482,550.21245 C 263.42321,547.48741 263.31782,515.93836 261.83948,512.69376 C 261.06812,511.0008 259.87928,510.14671 258.29417,510.14671 C 256.06368,510.14671 255.96083,510.38935 256.70469,513.89671 C 257.57576,518.00393 257.41658,541.1174 256.47054,547.89671 C 255.90747,551.9316 256.00531,552.14671 258.40354,552.14671 C 259.87756,552.14671 261.36077,551.34112 261.96482,550.21245 z M 113.68408,541.74203 C 116.39143,539.41326 116.49109,538.97787 116.84118,527.94942 C 117.56412,505.17557 114.20166,491.78188 107.26195,489.79249 C 104.60983,489.03221 103.16222,489.3066 99.261948,491.30886 C 96.609368,492.6706 93.924598,494.94282 93.201018,496.43844 C 92.047148,498.82346 92.177238,499.59949 94.365558,503.38506 C 99.448238,512.17761 101.59679,527.42093 99.150128,537.33009 C 98.286688,540.82708 98.399038,541.09159 101.37034,542.55732 C 105.98089,544.83169 110.43498,544.53679 113.68408,541.74203 z M 129.39791,540.01127 C 132.61145,538.54708 133.48573,532.30207 132.74077,516.13311 C 132.18562,504.08378 129.94025,496.14087 126.15753,492.84521 C 124.38535,491.30121 114.23037,488.583 113.3866,489.42678 C 113.10861,489.70477 113.79168,491.63107 114.90455,493.70744 C 118.21285,499.88 119.16191,507.12602 118.82043,523.60484 C 118.51707,538.24388 118.60653,539.11928 120.5,540.03943 C 123.24361,541.37272 126.43201,541.36262 129.39791,540.01127 z M 141.97825,537.93968 C 145.09918,534.58976 146.28476,528.6082 145.74363,518.94249 C 145.11983,507.80032 142.15775,501.12222 137.2329,499.75475 C 135.43599,499.2558 133.74633,499.06705 133.47809,499.33529 C 133.20985,499.60353 133.4581,502.25833 134.02975,505.23485 C 135.24651,511.57031 135.16276,534.58841 133.91098,537.88086 C 133.1194,539.96287 133.32831,540.14671 136.4858,540.14671 C 138.74177,540.14671 140.62835,539.38863 141.97825,537.93968 z M 388.54111,537.49256 C 390.68006,536.67177 392.27284,530.45183 391.5605,525.7016 C 390.10669,516.0069 380.00301,506.13612 371.55422,506.15648 C 367.07732,506.16727 358.42108,509.80514 355.85324,512.75498 C 354.94752,513.79543 353.98722,515.54671 353.71924,516.64671 C 353.36073,518.11832 353.20136,517.89407 353.116,515.79792 C 352.95837,511.92671 357.28575,508.05232 364.20244,505.87203 C 371.89019,503.44868 374.89367,503.69979 380.55422,507.23913 C 388.71043,512.33893 393,519.08808 393,526.82116 C 393,531.25072 393.11333,531.46195 394.66001,529.91527 C 396.91435,527.66094 398.07009,518.10479 397.04788,510.17151 C 395.27524,496.41433 388.98797,485.95902 381.85853,484.91264 C 378.36094,484.3993 367.61452,487.74787 363.66145,490.58282 C 357.01263,495.35103 356.50981,495.52106 359.94617,491.83914 C 361.84156,489.8083 363.89305,488.14671 364.50504,488.14671 C 365.11702,488.14671 366.49125,487.48602 367.55887,486.67851 C 369.35861,485.31726 369.17222,485.20962 365,485.20075 C 359.55303,485.18917 354.46524,488.38136 357,490.22013 C 359.89018,492.31672 349.6552,490.14128 345.83675,487.84738 C 341.08179,484.99088 334.98794,477.50359 330.9613,469.57047 C 328.43732,464.59782 327.56417,461.28013 326.85074,453.95168 C 325.98912,445.10089 322.32569,430.24817 314.443,403.64671 C 310.90308,391.70067 310.89191,391.60205 311.9591,381.71449 C 312.54871,376.25176 313.21658,371.5968 313.44326,371.37012 C 313.66993,371.14344 314.80838,372.68794 315.97315,374.80235 L 318.0909,378.64671 L 317.64643,372.46462 C 317.10595,364.947 316.53141,363.79194 314.00505,365.14401 C 312.97459,365.69549 310.4144,366.16168 308.31574,366.17998 C 306.06179,366.19963 303.55828,366.99835 302.1992,368.13141 C 300.01176,369.95505 299.97481,370.19732 301.4492,373.04848 C 302.30214,374.69788 303,377.89122 303,380.1448 C 303,385.11894 300.30362,387.99754 292.67247,391.17027 C 288.08695,393.07674 287.23911,393.91586 285.2009,398.565 L 282.9018,403.80923 L 284.87963,409.22797 C 287.83425,417.32286 289,427.29255 289,444.46614 C 289,455.92509 289.38649,460.82747 290.5,463.49247 C 291.32793,465.47397 292,470.0907 292,473.79654 C 292,479.29308 292.7058,482.24567 295.89215,490.07866 C 298.03284,495.34109 300.03922,501.82817 300.35078,504.4944 C 301.04026,510.39467 301.97074,511.59145 308.40265,514.85075 C 314.45821,517.91933 318.91524,521.31558 329.49106,530.92009 L 337.5,538.19346 L 362.33948,538.10436 C 376.0012,538.05536 387.79193,537.78005 388.54111,537.49256 z M 50.999999,528.51474 C 50.999999,527.61716 50.145609,525.47966 49.101359,523.76474 C 48.057109,522.04983 46.655749,517.94671 45.987229,514.64671 C 44.376359,506.69497 42.962459,504.16387 37.392739,499.26121 C 32.478759,494.93575 32.321279,494.21782 36.799659,496.55743 C 42.275049,499.41791 44.955139,503.41551 46.561039,511.11742 C 48.470809,520.27674 49.607699,522.5363 51.826689,521.58284 C 52.747009,521.1874 54.737499,520.65142 56.249999,520.39178 C 57.762498,520.13214 58.999998,519.79319 58.999998,519.63855 C 58.999998,519.4839 58.056018,516.27248 56.902258,512.50205 C 53.542839,501.52361 49.061299,495.84797 48.969589,502.45573 C 48.939839,504.59927 48.914629,504.6034 47.805059,502.64671 C 46.293589,499.98129 44.993139,499.21211 43.176639,499.90917 C 42.145239,500.30496 41.917659,500.08895 42.453179,499.22248 C 42.883639,498.52597 44.315059,498.16494 45.641089,498.41843 C 46.964749,498.67146 48.272849,498.51425 48.547999,498.06906 C 48.823139,497.62387 47.414129,493.74672 45.416859,489.45317 C 43.419589,485.15962 41.549479,479.95921 41.261059,477.89671 C 40.972639,475.83421 40.574009,474.14671 40.375219,474.14671 C 40.176419,474.14671 36.073169,478.10835 31.256879,482.95035 C 25.481529,488.75655 20.116649,493.05793 15.499999,495.58371 C 1.9425987,503.00099 0.054678698,507.32991 6.0956087,517.14767 C 9.7257787,523.04745 11.433049,524.14671 16.965809,524.14671 C 19.219319,524.14671 23.861399,525.10437 27.281549,526.27484 C 33.294729,528.33272 41.016559,529.74394 47.749999,530.01559 C 50.142589,530.11212 50.999999,529.71617 50.999999,528.51474 z M 171.77903,505.39671 C 171.95553,497.0152 171.68939,492.14671 171.05471,492.14671 C 169.76023,492.14671 167,497.47417 167,499.97262 C 167,501.0315 165.91733,504.34597 164.59406,507.33811 C 160.92097,515.64363 160.90524,517.47226 164.5,518.27507 C 171.58553,519.85747 171.47021,520.06151 171.77903,505.39671 z M 236.71468,501.31273 C 245.79335,493.53875 246.23875,473.84381 237.54437,464.62508 C 234.00974,460.87727 229.18892,459.6936 230.50513,462.89671 C 232.3008,467.26663 233.83607,474.64638 234.4927,482.06419 C 235.12718,489.23188 234.96406,490.60308 233.03712,494.3 C 231.84354,496.58993 229.66761,499.40473 228.20171,500.55511 L 225.53645,502.64671 L 229.01822,503.26507 C 230.9332,503.60517 232.725,503.92438 233,503.97443 C 233.275,504.02448 234.9466,502.82672 236.71468,501.31273 z M 226.39304,500.05218 C 227.85756,498.90019 229.98816,496.13008 231.12771,493.89638 C 232.87688,490.46772 233.09379,488.80791 232.52022,483.2409 C 230.96962,468.19099 227.24067,457.4962 223.18928,456.47937 C 219.33911,455.51304 213.58401,458.91659 213.18358,462.39671 C 212.92549,464.63977 213.26226,465.14671 215.0105,465.14671 C 218.02889,465.14671 222.61168,470.08477 223.90015,474.72551 C 224.49893,476.88217 224.99136,482.07141 224.99442,486.25716 C 224.99917,492.73138 224.62675,494.41763 222.5,497.55157 C 221.125,499.57775 220,501.44054 220,501.69112 C 220,502.93656 224.0442,501.89978 226.39304,500.05218 z M 221.14581,496.89671 C 221.84376,495.60547 222.38912,490.56403 222.42565,485.0656 C 222.48439,476.22523 222.27602,475.16219 219.73047,471.3156 C 218.2131,469.02271 216.24051,467.14671 215.34692,467.14671 C 213.59862,467.14671 213.59407,466.97669 215.88237,487.14671 C 217.26438,499.32832 218.54711,501.70445 221.14581,496.89671 z M 288.8341,464.76807 C 287.91257,462.55877 287.60562,457.1176 287.78361,446.14671 C 287.97024,434.6434 287.60868,428.71283 286.38142,423.14671 C 283.77102,411.30759 283.06925,408.74902 281.9929,407.14671 C 281.13668,405.87209 280.67758,406.02234 278.93739,408.14671 L 276.88951,410.64671 L 277.39712,405.14671 L 277.90472,399.64671 L 276.16365,406.64671 C 274.63875,412.77762 274.28055,413.3984 273.27854,411.64671 C 272.02022,409.44694 272.11153,409.30759 270.00237,416.64671 C 269.37012,418.84671 268.35065,421.9583 267.73689,423.56136 L 266.62096,426.476 L 265.56048,423.46604 L 264.5,420.45608 L 260.87045,427.81223 L 257.2409,435.16838 L 262.16693,439.09055 C 269.08496,444.59876 278.10549,455.68416 284.26026,466.24122 L 289.5,475.22876 L 289.81803,471.55909 C 289.99295,469.54077 289.55018,466.48481 288.8341,464.76807 z M 223,447.36581 C 226.025,446.24429 229.85,444.61395 231.5,443.74285 C 233.15,442.87175 235.237,442.15626 236.13779,442.15287 C 237.03857,442.14948 240.06522,440.57171 242.86368,438.64671 C 246.2082,436.34609 249.10631,435.14671 251.32091,435.14671 C 255.67713,435.14671 257.05458,433.50244 261.29661,423.23866 C 264.6362,415.15838 264.79878,414.95406 265.4672,417.99739 C 266.45191,422.48071 267.57081,421.17805 269.64234,413.13661 C 271.28802,406.74825 273,403.94909 273,407.64671 C 273,408.47171 273.36225,409.14671 273.805,409.14671 C 274.24775,409.14671 275.18582,405.71978 275.88961,401.53132 C 277.30897,393.08425 279.23179,392.57425 279.403,400.59946 C 279.45635,403.10017 279.60602,405.14632 279.7356,405.14646 C 279.86519,405.1466 281.3223,402.47021 282.97363,399.19894 C 285.51709,394.16039 285.87845,392.53905 285.33755,388.59273 C 284.81711,384.79576 284.12585,383.58476 281.59952,382.04424 C 276.48442,378.92511 275,379.46749 275,384.45558 C 275,390.94729 273.35472,392.57695 267.66256,391.72336 C 265.09815,391.3388 263,390.58112 263,390.03963 C 263,389.49814 260.8828,390.6717 258.2951,392.64755 C 255.16056,395.04095 252.74072,396.141 251.0451,395.94336 C 248.85585,395.68819 248.4557,395.08744 248.18317,391.64671 C 247.72211,385.82573 246.50083,385.43253 246.49513,391.10323 C 246.49175,394.45413 245.90449,396.59477 244.59014,398.04711 C 241.91275,401.00559 237.64303,400.77705 235.53679,397.56251 C 233.92833,395.10769 233.74932,395.0636 231.96122,396.6818 C 230.74008,397.78692 229.01126,398.22859 227.03945,397.93919 C 224.39655,397.5513 224,397.79667 224,399.8199 C 224,402.28378 222.47318,403.00495 221.72024,400.89671 C 220.68211,397.98994 219.71133,401.8622 217.90996,416.0952 C 216.85862,424.40201 215.55979,433.09934 215.02367,435.4226 C 214.48754,437.74586 214.03789,442.52895 214.02445,446.0517 C 214.00149,452.06721 214.10641,452.3639 215.75,450.93082 C 216.7125,450.09159 219.975,448.48734 223,447.36581 z M 241.6003,398.3814 C 243.46545,397.136 245,393.42938 245,390.16961 C 245,387.84351 243.80434,385.7774 240.25,381.96154 L 235.5,376.86205 L 239,378.61633 C 245.31135,381.77973 249,386.08348 249,390.28386 C 249,392.34351 249.46979,394.31902 250.04398,394.67389 C 252.10292,395.94638 262,388.042 262,385.12511 C 262,383.60835 259.53196,381.14321 244,367.14629 C 240.975,364.42025 238.8362,362.18015 239.24712,362.16828 C 239.65803,362.15642 241.77857,363.75875 243.95943,365.72902 C 246.14028,367.69929 248.37918,369.0304 248.93475,368.68704 C 249.49032,368.34368 250.45268,366.36784 251.07333,364.2963 C 252.06021,361.00238 251.85801,359.56148 249.46161,352.81122 C 247.95452,348.56597 246.29524,344.82918 245.77432,344.50723 C 244.62254,343.79539 238.97041,349.1389 235.35162,354.36082 C 233.89482,356.46298 232.50137,357.98141 232.25506,357.7351 C 232.00874,357.48879 233.24397,355.19901 235,352.64671 C 236.75603,350.09441 238.03691,347.89703 237.84639,347.76364 C 231.16224,343.08394 221.53624,338.18911 217.97694,337.66003 C 214.14753,337.0908 213.16363,337.30842 211.56119,339.0791 C 209.89694,340.91807 209.7989,341.74042 210.74895,345.89211 C 211.3432,348.489 211.6033,350.97956 211.32696,351.4267 C 211.05061,351.87383 208.86559,350.434 206.47136,348.22708 C 204.07713,346.02015 200.92585,343.91522 199.46851,343.54945 C 196.74624,342.86621 189.4982,344.53159 188.55548,346.05694 C 188.26482,346.52724 190.38343,347.94247 193.2635,349.20189 L 198.5,351.49174 L 194.51727,352.35195 C 192.32677,352.82507 190.1096,353.63711 189.59022,354.15649 C 188.34459,355.40212 193.70165,357.60576 203.11668,359.72063 C 211.61155,361.6288 214.91914,363.05994 211,363.13161 C 209.625,363.15676 207.825,363.61355 207,364.14671 C 205.85363,364.88755 206.23102,365.11969 208.60078,365.1314 C 213.083,365.15353 218,367.09963 218,368.85152 C 218,369.8191 217.43033,370.14208 216.41258,369.75154 C 209.70157,367.17628 203.61213,368.3275 202.07499,372.46208 C 200.7601,375.99887 201.76018,376.8725 209.21515,378.69944 C 213.10377,379.65239 217.18874,381.33545 218.29285,382.43956 C 220.81815,384.96486 222.78802,383.94023 225.36405,378.76146 L 227.2281,375.01403 L 224.27636,371.33037 C 220.76781,366.95183 219.35541,364.40549 217.46799,359.05598 C 215.6827,353.99593 216.7313,354.65824 221.52496,361.61842 C 223.61907,364.65898 225.70764,367.14671 226.16622,367.14671 C 227.7991,367.14671 227.46855,360.03801 225.47069,352.18928 C 224.70665,349.18769 224.255,346.55837 224.46703,346.34635 C 225.36481,345.44857 228.1535,352.64715 228.70199,357.27827 C 229.20417,361.51841 229.58319,362.22747 231.13116,361.82266 C 232.67025,361.42018 232.79979,361.65229 231.93641,363.26553 C 230.63036,365.70591 231.44626,366.99875 235.37005,368.70632 L 238.5,370.06843 L 235,370.12288 C 230.27647,370.19637 229.30715,370.99256 228.46299,375.49228 C 227.51121,380.56573 221.36104,387.14671 217.5715,387.14671 C 213.92054,387.14671 214.6107,388.84644 219.90625,392.89671 C 222.72859,395.05536 225.26875,396.14671 227.47075,396.14671 C 231.30375,396.14671 231.95992,395.03449 232.09122,388.31492 L 232.18243,383.64671 L 234.01422,389.48289 C 235.6735,394.76946 238.36089,399.17114 239.90499,399.1314 C 240.23224,399.12298 240.99513,398.78548 241.6003,398.3814 z M 293.28984,389.03386 C 298.90545,386.21569 302.00479,383.25074 301.97804,380.7224 C 301.96596,379.58077 301.04377,376.63551 299.92873,374.17737 L 297.90138,369.70802 L 301.15238,366.86958 C 303.56998,364.75879 305.03198,364.18891 306.85544,364.64656 C 310.13292,365.46916 314.7611,363.44112 315.65839,360.78916 C 316.54754,358.16125 316.32637,356.19828 314.34796,349.15843 L 312.80559,343.67014 L 311.15279,346.65843 L 309.5,349.64671 L 309.18664,346.39671 C 309.01429,344.60921 308.45179,343.14671 307.93664,343.14671 C 307.42149,343.14671 307,342.24671 307,341.14671 C 307,340.04671 306.58575,339.14671 306.07946,339.14671 C 305.01672,339.14671 304.46924,341.56035 303.01726,352.64671 C 302.441,357.04671 301.47621,362.15543 300.8733,363.99942 C 299.89049,367.00533 299.47832,367.29237 296.88855,366.77442 C 294.47165,366.29104 294,366.52431 294,368.20309 C 294,370.58357 291.13758,371.98735 290.00856,370.16057 C 289.46118,369.27488 288.69032,369.99705 287.49555,372.51485 C 285.31627,377.10733 284.57818,377.13351 285.31514,372.59218 C 286.01317,368.29073 283.43702,364.77608 278.35736,363.09963 C 274.57015,361.84974 272.27294,362.35757 268.58246,365.26051 C 263.27118,369.43836 266.43724,373.99191 277.84701,378.58512 C 284.75501,381.36606 287,383.68193 287,388.0271 C 287,389.67287 287.80622,391.14671 288.7065,391.14671 C 288.91175,391.14671 290.97425,390.19593 293.28984,389.03386 z M 273.15,385.64671 C 273.2325,383.17171 273.345,380.71218 273.4,380.18109 C 273.455,379.65001 271.35189,377.85319 268.72641,376.18816 C 265.27967,374.0023 263.78743,372.33384 263.35777,370.18555 C 262.90094,367.90142 261.72062,366.70578 258.27679,365.03866 C 254.55261,363.23581 253.64142,363.10306 252.91075,364.25688 C 250.65477,367.81936 251.9759,370.89599 258.58625,377.47391 C 263.97415,382.83538 265.04636,384.42528 264.47924,386.21213 C 263.6302,388.88721 265.27507,390.11031 269.75,390.1314 C 272.91541,390.14631 273.0039,390.02959 273.15,385.64671 z M 291.6349,364.58117 C 292.55946,363.17012 293.88156,359.68262 294.57291,356.83117 L 295.82991,351.64671 L 295.91495,358.89671 C 295.97956,364.40448 296.33649,366.14671 297.40026,366.14671 C 299.1535,366.14671 300.70565,359.72557 301.99305,347.14671 C 302.52781,341.92171 302.97314,337.04868 302.98267,336.31776 C 302.9922,335.58684 298.45221,339.63684 292.89379,345.31776 C 286.14381,352.21651 284.56636,353.54105 288.14379,349.30618 C 301.35908,333.6623 301.72535,332.51764 292.71637,335.01575 C 279.53754,338.67013 275.12604,342.77964 274.2161,352.24955 C 273.80131,356.56634 274.00005,357.04496 277.23041,359.50888 C 281.00158,362.38529 283.86121,362.84153 285.92911,360.89671 C 287.02324,359.8677 287.14429,360.1771 286.61384,362.64671 C 285.97256,365.63229 285.97794,365.63647 287.73473,363.51527 C 288.70563,362.34299 290.06235,360.54299 290.74967,359.51527 C 291.49405,358.40224 291.39296,359.21236 290.49967,361.51883 C 288.13615,367.6214 288.68058,369.09003 291.6349,364.58117 z M 265.96482,364.21245 C 267.62954,361.10188 267.19507,357.32148 265.04032,356.16829 C 263.9625,355.59146 261.10002,354.84803 258.67924,354.51622 C 254.52785,353.94721 254.24944,354.06152 253.77782,356.52865 C 253.1579,359.77152 254.38412,361.3731 259.5,364.00247 C 264.49221,366.56828 264.7004,366.57504 265.96482,364.21245 z M 274.78122,360.64148 C 274.9359,360.51834 274.28801,359.06822 273.34147,357.41897 C 271.82437,354.77558 271.7686,353.75859 272.87065,348.83409 C 274.36428,342.15986 277.80662,338.67509 286.31872,335.22029 C 289.44342,333.95206 292,332.49373 292,331.97954 C 292,331.05604 290.01684,330.12969 280.76735,326.73268 C 276.71421,325.24411 275.87224,324.45232 274.90324,321.21809 C 273.6097,316.90063 274.73882,313.68177 277.89865,312.67888 C 279.53318,312.1601 279.65049,311.68101 278.73614,309.25862 C 277.24631,305.3116 278.26609,303.50697 282.4275,302.72629 C 285.7241,302.10784 285.96118,301.83436 285.35428,299.35002 C 284.99106,297.8632 283.53546,294.48348 282.1196,291.83953 C 279.55677,287.05378 279.09285,286.85238 274.75,288.64025 C 273.34661,289.21799 273,288.84433 273,286.7537 C 273,285.31985 272.55,284.14671 272,284.14671 C 270.29776,284.14671 270.89506,281.77157 273.30069,278.97455 C 275.33978,276.6037 275.62625,275.11871 275.84122,265.80519 C 276.07595,255.63511 276.01208,255.28621 273.79175,254.60907 C 271.32715,253.85744 268,251.28393 268,250.12923 C 268,249.7401 269.35,247.72297 271,245.64671 C 275.30939,240.22405 274.99372,237.79793 269.71657,235.78257 C 267.36068,234.88285 264.85268,234.14671 264.14324,234.14671 C 261.67397,234.14671 263.54001,230.70224 267.64417,227.68446 L 271.77548,224.64671 L 271.23682,201.60794 C 270.66027,176.94859 271.11652,171.4078 273.80517,170.41709 C 274.73733,170.07362 275.83061,169.30977 276.23469,168.71965 C 276.65439,168.10672 276.97594,168.56135 276.98469,169.78008 C 276.99376,171.04474 276.22488,172.11615 275.09646,172.41124 C 273.516,172.82453 273.06871,174.2345 272.46111,180.7185 C 271.67556,189.10144 272.63659,217.14111 273.86715,221.74236 L 274.61353,224.53318 L 276.80677,222.33994 C 278.8135,220.33321 279,219.15566 279,208.49172 L 279,196.83673 L 281.05112,198.69298 L 283.10225,200.54922 L 282.40764,191.34796 C 281.82842,183.67506 281.95281,182.14671 283.15652,182.14671 C 283.95043,182.14671 285.11672,182.66343 285.74827,183.29498 C 286.61262,184.15933 287.18593,183.29395 288.06698,179.79498 C 289.36179,174.65283 289.70594,174.36231 291.53668,176.86599 C 292.6081,178.33124 292.90294,177.5666 293.53219,171.69073 C 294.18857,165.56152 294.42087,165.0018 295.62488,166.64838 C 296.88555,168.37245 297.02264,168.28352 297.6068,165.3627 C 297.95197,163.63687 298.70862,162.31976 299.28826,162.43577 C 300.80095,162.73854 302.73829,155.2592 304.28461,143.14671 L 305.62508,132.64671 L 306.97269,139.89671 C 307.71388,143.88421 308.68147,147.14671 309.12289,147.14671 C 310.67442,147.14671 318.07225,135.11739 320.96771,127.88631 C 322.57775,123.86544 325.02707,116.21872 326.41065,110.89361 C 329.24527,99.983748 330.76254,96.672208 337.78552,86.067128 C 345.93594,73.759546 346.84162,71.389336 348.13487,58.982316 C 349.57544,45.161926 348.94106,41.154425 344.63033,36.843696 C 340.57981,32.793183 335.85152,31.3273 324.16,30.497413 C 319.15733,30.142313 315.27092,29.517359 315.52353,29.108624 C 315.77615,28.69989 314.88134,27.643746 313.53507,26.761636 C 312.1888,25.879527 308.36936,21.651414 305.04743,17.365829 C 297.03123,7.0242179 290.01471,2.6002749 281.87329,2.7544289 C 278.74413,2.8136779 275.44611,3.1452719 274.54436,3.4913049 C 272.55392,4.2551109 262.24117,25.637861 258.61946,36.510472 C 254.84481,47.842196 255.33082,60.686256 259.67057,64.288466 C 262.20858,66.395146 271.19002,66.202316 278.22038,63.890216 C 283.04141,62.304696 286.94827,61.840306 295.04047,61.890886 C 306.45685,61.962246 310.34045,62.739186 322.35593,67.355536 L 330.21186,70.373776 L 323.35593,74.077816 C 312.99922,79.673208 304.58897,91.095088 300.58718,104.99984 C 299.38946,109.16146 299.34007,110.10936 300.36528,109.25851 C 301.09059,108.65657 301.93357,108.41361 302.23857,108.71861 C 302.85977,109.33982 300.268,121.24341 299.32527,122.09895 C 298.626,122.73354 299.67395,115.20629 300.66385,112.48413 C 301.1333,111.19317 300.69773,111.39022 299.19928,113.14671 C 297.22993,115.45518 297.06514,115.49348 297.04828,113.64671 C 297.01545,110.05241 301.62292,96.774958 304.94238,90.898038 C 307.21518,86.874188 308.35269,83.348738 308.7336,79.148036 C 309.0329,75.847306 308.96828,73.146706 308.59,73.146706 C 308.21172,73.146706 307.0341,75.059206 305.97307,77.396706 C 304.33097,81.014328 304.0302,81.274718 303.95168,79.146706 C 303.90094,77.771706 303.50096,75.746706 303.06283,74.646706 C 302.34659,72.848466 302.02582,73.050226 299.88311,76.646706 L 297.5,80.646708 L 296.75022,73.146706 C 296.33784,69.021706 295.92534,65.062606 295.83356,64.348716 C 295.71769,63.447536 294.26552,63.141826 291.08333,63.348716 L 286.5,63.646706 L 286.82218,74.146706 C 287.08573,82.735718 286.74964,85.920698 284.97553,91.646708 C 281.94028,101.44308 278.46534,108.10925 274.44871,111.84087 L 271.0106,115.03503 L 269.87311,112.84087 C 265.90412,105.1849 255.692,97.146708 249.93447,97.146708 L 247.80245,97.146708 L 249.76078,100.46584 C 252.42754,104.98566 254.78849,112.52874 255.6078,119.14671 C 256.24008,124.25396 256.70838,125.02898 262.16576,129.99999 C 266.60324,134.04198 269.01738,137.36669 272.02141,143.57302 C 275.8206,151.42214 277.17874,158.14671 274.96482,158.14671 C 274.25124,158.14671 274.25124,158.74764 274.96482,160.08097 C 275.53417,161.14481 275.95394,163.28231 275.89764,164.83097 L 275.79528,167.64671 L 275.01678,164.64671 C 274.58861,162.99671 273.52265,160.00473 272.64799,157.99787 C 271.09355,154.43129 271.1047,154.36133 273.1427,154.89428 C 274.94829,155.36645 275.13367,155.11837 274.52596,153.04312 C 274.14,151.72509 272.58937,147.94671 271.08013,144.64671 C 268.14206,138.22257 258.73365,127.11445 257.3685,128.45796 C 256.91512,128.90414 256.67147,133.40414 256.82706,138.45796 L 257.10995,147.64671 L 254.55498,144.20243 C 251.94711,140.68685 251.01614,137.76285 253.2,139.94671 C 255.42989,142.1766 255.70887,141.1704 255.43192,131.89671 C 255.04609,118.97698 252.81589,109.52034 247.94831,100.16424 C 242.16287,89.043898 237.90986,84.673018 230.52583,82.258918 C 223.92029,80.099338 223.00238,80.245218 222.99488,83.455718 C 222.98663,86.984288 218.97095,92.490948 212.00736,98.522798 C 204.67034,104.87811 201.64033,105.53435 195.08195,102.18852 C 190.13751,99.666048 183.42788,92.036098 182.62532,88.023288 C 181.68186,83.305988 181.8736,77.251406 183.03518,75.080966 C 183.81427,73.625226 183.74562,73.146706 182.75769,73.146706 C 178.99176,73.146706 171.30449,82.906608 165.935,94.505128 C 164.37123,97.882998 163.07113,100.09704 163.04589,99.425218 C 162.96198,97.191588 167.76769,87.379058 171.99227,81.158088 C 176.67455,74.263116 181.3147,70.817856 184.79195,71.654446 C 186.78675,72.134376 187.39693,71.498036 189.49845,66.746116 C 193.25657,58.248346 197.99221,43.622716 200.53951,32.646703 C 203.07535,21.720081 203.85897,22.428444 201.50851,33.522651 L 200.05175,40.398599 L 203.92362,44.797266 C 209.06417,50.637246 211.32045,55.493936 211.96651,62.109746 C 212.47688,67.335996 212.64264,67.601786 215.79096,68.241816 C 220.12753,69.123426 222.66412,71.542756 223.40771,75.506466 C 223.92938,78.287216 224.60258,78.893476 228.25674,79.873368 C 230.59053,80.499198 233.23236,81.293708 234.12746,81.638938 C 235.44215,82.146008 235.89223,81.342238 236.46936,77.456666 C 238.79268,61.814746 244.54203,48.504406 251.74428,42.093676 C 256.28366,38.05316 256.36353,37.893396 253.5,38.581562 C 251.85,38.978092 249.78957,39.942465 248.92126,40.724614 C 246.85683,42.584196 246.29909,42.527126 243.27287,40.146703 C 241.77448,38.968073 239.21609,38.146703 237.04328,38.146703 C 232.95699,38.146703 224.85952,40.617376 221,43.041776 C 218.67291,44.503566 218.59241,44.495366 219.83609,42.923246 C 221.92586,40.28159 220.50099,39.403414 214.77993,39.807046 C 210.92144,40.07927 210.06682,39.928987 211.60545,39.248824 L 213.71091,38.318094 L 211.50357,29.482398 C 208.49696,17.447325 206.98166,14.256612 202.24134,9.9792369 C 195.95228,4.3043599 194.62741,3.8324969 192.29114,6.4353689 C 191.19948,7.6516029 187.46313,14.046703 183.98815,20.646703 C 176.92132,34.068666 167.178,49.658036 166.36454,48.844576 C 166.0719,48.551946 167.44517,45.791466 169.41624,42.710186 C 171.38731,39.628913 173,36.913607 173,36.676178 C 173,36.438748 171.0875,37.112603 168.75,38.173633 C 166.4125,39.234663 163.15,40.114344 161.5,40.128479 C 156.14101,40.174388 152.12861,43.586436 148.79947,50.928686 C 143.92941,61.669366 140.96855,75.012486 140.31882,89.146708 C 139.66141,103.44798 140.97297,110.54131 146.14317,120.64671 C 151.02948,130.19722 151.05344,130.20325 156.3668,123.21663 C 160.53968,117.72966 161.0159,116.55421 161.16004,111.38554 C 161.25757,107.88793 161.47711,106.90952 161.72217,108.88024 L 162.12426,112.11378 L 164.53053,109.38024 C 167.60406,105.8887 167.60129,107.16457 164.5191,114.64671 C 163.1169,118.05062 162.05798,122.59378 162.07177,125.14671 L 162.09606,129.64671 L 163.79803,126.21936 C 165.86186,122.0633 168.68127,120.60984 167.59328,124.26283 C 167.20277,125.57396 166.23006,130.69671 165.43169,135.64671 C 164.08994,143.96571 164.11327,144.92959 165.74005,148.38524 C 166.70802,150.44143 167.7471,152.12893 168.04911,152.13524 C 168.35112,152.14155 169.19396,150.45921 169.92209,148.39671 C 171.58124,143.69698 173.34305,141.66147 177.09782,140.10619 C 179.59531,139.0717 180.33361,139.13865 181.88214,140.54005 C 183.54287,142.04299 183.83452,142.05102 185.01683,140.62643 C 185.73381,139.76252 186.92171,139.28643 187.65661,139.56843 C 188.47225,139.88142 189.73438,138.63304 190.8964,136.36394 C 192.49006,133.25195 197.75886,128.14671 199.37688,128.14671 C 199.6287,128.14671 203.29888,130.19476 207.53281,132.69793 C 211.76675,135.20111 215.33757,137.11361 215.46796,136.94793 C 215.59836,136.78226 216.13143,135.85092 216.65258,134.87829 C 217.46407,133.36379 218.45445,134.17874 223.55006,140.55404 C 227.95362,146.06348 231.15862,148.92715 235.88179,151.57246 C 239.39178,153.5383 242.65198,155.14671 243.12667,155.14671 C 243.60137,155.14671 244.90628,153.23421 246.02648,150.89671 C 248.5964,145.53411 250.7929,142.60628 251.6232,143.43657 C 251.97732,143.7907 251.07621,148.70785 249.62072,154.36357 C 241.05431,187.6509 238.62609,196.59211 235.82926,205.14671 C 234.12101,210.37171 231.88975,216.30814 230.8709,218.33878 C 228.39408,223.2753 222.99324,227.25697 218.28744,227.61571 C 216.20435,227.77452 215.4,227.71303 216.5,227.47907 C 217.6,227.24511 219.71564,226.57909 221.20141,225.99901 L 223.90283,224.94432 L 222.29312,220.79552 C 220.50237,216.18008 219.1676,214.14671 217.92864,214.14671 C 216.76676,214.14671 210.77268,226.96988 211.43421,228.04026 C 211.73302,228.52375 211.14853,229.13611 210.13533,229.40107 C 207.4276,230.10916 202,240.73256 202,245.32429 C 202,249.37818 202.95486,250.11095 205.01023,247.63438 C 205.89715,246.56571 206.62929,246.42409 207.50593,247.15163 C 208.18825,247.7179 209.50144,247.89152 210.42413,247.53745 C 211.46754,247.13706 213.0123,247.74908 214.51028,249.15636 L 216.91879,251.41905 L 218.11991,248.78288 C 219.34208,246.10052 221.38238,245.33837 222.5,247.14671 C 223.58599,248.90388 227.87777,248.24361 229,246.14671 C 229.5887,245.04671 230.68465,244.14671 231.43544,244.14671 C 232.2591,244.14671 233.28911,242.06446 234.03241,238.89671 C 235.59769,232.22586 236.68364,230.14671 238.60257,230.14671 C 240.48892,230.14671 239.90667,232.319 235.85519,240.39671 C 234.269,243.55921 232.30269,246.14671 231.4856,246.14671 C 230.66852,246.14671 230,246.56375 230,247.07347 C 230,247.58319 228.66872,248.66435 227.04161,249.47607 C 224.50742,250.74029 223.9163,250.75079 222.91916,249.54931 C 221.03069,247.27383 219.20574,247.9335 218.5,251.14671 C 217.6687,254.93159 216.88844,254.92073 214.62724,251.09283 C 212.4536,247.41315 210.43017,247.74756 210.6852,251.74433 C 210.78706,253.34064 210.91927,258.13421 210.97899,262.39671 C 211.07662,269.36536 211.28334,270.14671 213.02939,270.14671 C 214.50148,270.14671 215.25036,271.25535 216.12524,274.72979 C 216.86502,277.66772 217.56075,278.85743 218.06342,278.04409 C 219.41364,275.8594 221.67191,278.71665 226.33898,288.51463 C 232.83954,302.16181 232.75266,301.83856 233.93121,316.76243 C 234.53426,324.39878 235.18917,332.54148 235.38656,334.85732 C 235.58395,337.17316 235.47569,339.33769 235.14599,339.66739 C 234.81629,339.99709 233.31067,338.77732 231.80017,336.95678 L 229.0538,333.64671 L 229.0269,336.91873 C 229.00371,339.7393 229.64789,340.60164 233.69578,343.16873 C 239.31178,346.73029 239.71275,346.7652 242.70616,343.95303 C 244.89547,341.89628 245.14637,341.8645 246.72578,343.44392 C 247.65229,344.37043 249.13998,347.04508 250.03176,349.38759 C 251.10791,352.2144 252.13187,353.49132 253.07659,353.18465 C 255.77372,352.30913 261.52438,352.92114 265.25768,354.48102 C 268.42859,355.8059 269,356.51343 269,359.11474 C 269,361.95718 269.2039,362.1359 271.75,361.52509 C 273.2625,361.16223 274.62655,360.76461 274.78122,360.64148 z M 238.87557,120.91422 C 236.7521,116.94647 237.21763,110.48158 239.81092,107.92496 L 242.12184,105.64671 L 244.06092,108.00749 C 246.36669,110.81472 246.53911,114.92067 244.55103,119.67883 C 242.88956,123.65528 240.6083,124.15184 238.87557,120.91422 z M 243.02045,119.1085 C 243.6204,117.98749 243.97373,115.17499 243.80563,112.8585 C 243.55577,109.41525 243.13505,108.64671 241.5,108.64671 C 239.89604,108.64671 239.43672,109.41991 239.18041,112.55139 C 238.57868,119.90329 240.67727,123.48677 243.02045,119.1085 z M 170.60699,118.56492 C 169.46926,115.60004 169.9961,108.53402 171.5,106.58784 C 172.98484,104.66633 173.01516,104.66633 174.5,106.58784 C 176.03625,108.57588 176.44461,113.88575 175.36971,117.89671 C 174.67613,120.48483 171.51397,120.92848 170.60699,118.56492 z M 174.14059,115.89671 C 174.61923,111.56855 174.06455,107.14671 173.04298,107.14671 C 172.03396,107.14671 171.1909,113.69449 171.79382,116.84849 C 172.43206,120.18721 173.72407,119.66321 174.14059,115.89671 z M 227.37178,117.67316 C 226.58748,115.62933 227.60892,109.13779 228.92131,107.8254 C 230.97783,105.76888 233.11375,109.20331 232.79816,114.05912 C 232.54533,117.94926 232.15726,118.69538 230.24553,118.96685 C 228.87217,119.16187 227.74903,118.65626 227.37178,117.67316 z M 231.3907,114.72617 C 232.09609,111.91567 231.19854,108.90597 229.89522,109.71147 C 228.73,110.43162 228.72672,117.14671 229.89159,117.14671 C 230.38197,117.14671 231.05657,116.05747 231.3907,114.72617 z M 162.07895,102.56338 C 162.12693,101.39843 162.36389,101.16148 162.68311,101.95921 C 162.97198,102.68108 162.93646,103.54358 162.60417,103.87588 C 162.27187,104.20817 162.03553,103.61754 162.07895,102.56338 z M 231.66667,102.48004 C 230.54795,101.36132 230.92427,95.622438 232.2,94.346708 C 235.39547,91.151238 238.9353,95.556478 237.08427,100.42505 C 236.10989,102.98788 233.25675,104.07012 231.66667,102.48004 z M 235.80384,97.846068 C 235.41938,93.992708 233.2793,93.185688 232.42903,96.573428 C 231.56755,100.00588 232.52468,102.26634 234.51598,101.5022 C 235.59584,101.08782 236.00997,99.912138 235.80384,97.846068 z M 171.70392,99.122508 C 170.82129,95.747308 172.84622,90.146708 174.94918,90.146708 C 177.54698,90.146708 179.29973,95.394758 177.80072,98.684728 C 176.39703,101.76551 172.46884,102.04756 171.70392,99.122508 z M 176.39301,98.564918 C 177.52332,95.619388 177.05045,92.146708 175.51905,92.146708 C 173.86248,92.146708 172.47281,96.330478 173.36077,98.644468 C 174.11237,100.60311 175.62612,100.5634 176.39301,98.564918 z M 208,345.3017 C 208,344.06142 204.9894,341.63085 201,339.65033 C 199.075,338.69467 196.6,337.09296 195.5,336.09098 C 193.07332,333.88054 185,334.44578 185,336.82613 C 185,339.07623 190.14481,343.31617 191.9349,342.54132 C 195.99087,340.78566 198.87721,341.04266 202.6231,343.493 C 206.79741,346.22359 208,346.62812 208,345.3017 z M 328.51559,341.12948 C 330.29511,339.16314 330.26793,339.03581 327.43815,336.08215 C 325.01312,333.55097 324.77922,332.89771 326.01756,332.11469 C 326.8329,331.59915 328.0625,331.17044 328.75,331.16202 C 331.04227,331.13394 330.09066,326.36318 327.36514,324.21929 C 324.74043,322.15469 320.40167,321.51489 318.5,322.91202 C 316.42119,324.4393 307,335.34762 307,336.2273 C 307,336.73297 308.81412,337.14671 311.03138,337.14671 C 313.69235,337.14671 315.25844,337.65662 315.63837,338.64671 C 315.95496,339.47171 316.95333,340.16266 317.85699,340.18215 C 318.76064,340.20163 320.625,340.86069 322,341.64671 C 325.37292,343.57485 326.37452,343.49533 328.51559,341.12948 z M 205.60961,335.7548 C 204.03006,331.97441 204.65276,331.35532 208.15139,333.22773 C 211.26481,334.89399 211.35789,333.78648 208.56723,328.27939 C 207.15525,325.49298 206,322.62973 206,321.9166 C 206,321.20348 203.8625,320.08171 201.25,319.42378 C 198.6375,318.76586 195.4875,317.93188 194.25,317.5705 C 192.06992,316.93387 192,317.12878 192,323.84299 C 192,330.26461 192.22389,330.98703 195.05456,333.69898 C 197.73263,336.26473 205.96231,340.43001 206.80858,339.64802 C 206.9783,339.49119 206.43876,337.73924 205.60961,335.7548 z M 227.37087,329.89671 C 230.60924,320.9993 230.63489,319.75701 227.60869,318.37819 C 225.41318,317.37785 225.09034,317.58988 223.66589,320.96767 L 222.1144,324.64671 L 222.3072,319.64671 L 222.5,314.64671 L 218.28821,314.34108 C 213.4676,313.99127 210.66709,315.19897 208.44903,318.58415 C 206.99592,320.80189 207.10633,321.38072 210.19903,327.7587 C 213.65675,334.88942 213.91373,335.06059 224.11605,337.02792 C 224.45488,337.09325 225.91955,333.88421 227.37087,329.89671 z M 233.04451,321.64817 C 231.15586,303.73191 230.06722,299.19322 225.31583,289.42617 C 222.83127,284.31888 220.4246,279.90913 219.96765,279.62672 C 219.51071,279.34431 218.51656,279.99884 217.75843,281.08122 C 216.49072,282.89112 216.28128,282.5712 215.1508,277.09795 C 214.06108,271.82203 213.64896,271.14671 211.51898,271.14671 C 209.15574,271.14671 209.12595,271.03233 209.70157,264.16642 C 210.14883,258.83143 209.87352,256.10404 208.53352,252.59532 L 206.78028,248.0045 L 204.57569,250.07561 C 201.49189,252.97269 201,252.70734 201,248.14671 C 201,243.62265 200.8667,243.53272 197.46482,245.76172 C 195.78783,246.86052 195,248.29886 195,250.26172 C 195,251.84846 195.45,253.14671 196,253.14671 C 196.55,253.14671 197,253.77357 197,254.53972 C 197,256.13288 199.12309,257.14671 202.45934,257.14671 C 203.72202,257.14671 205.22308,257.71058 205.79504,258.39975 C 207.52578,260.48516 206.57535,266.2624 204.18281,268.19977 C 202.98226,269.17191 202,270.19805 202,270.48008 C 202,270.76211 203.35,272.34286 205,273.99286 C 208.62517,277.61803 208.6952,279.0982 205.60136,286.70269 L 203.20272,292.59841 L 207.85136,293.79492 C 214.84736,295.59561 217.99467,296.96923 218.57206,298.47391 C 218.85851,299.22037 217.49698,302.25437 215.54644,305.21611 C 210.74002,312.51429 210.87757,313.18542 217.03045,312.4567 C 221.00292,311.98622 222.42254,312.22151 223.78045,313.57545 C 224.7262,314.51844 226.9625,316.15113 228.75,317.20365 C 232.43964,319.37618 232.5553,319.98374 230.54856,326.65161 C 229.16832,331.23781 229.20511,331.62575 231.29856,334.56054 L 233.5,337.64671 L 233.85212,335.14817 C 234.04579,333.77397 233.68236,327.69897 233.04451,321.64817 z M 190.27827,323.85631 C 190.27336,316.06838 190.01086,314.78717 187.97643,312.62162 C 185.41066,309.89048 179.42891,308.3178 177.80049,309.94622 C 176.65211,311.0946 177.44926,318.669 178.97651,321.12051 C 179.76132,322.38027 180.22907,322.30076 182.19733,320.57305 C 187.89028,315.57587 188.05963,315.81357 184.35867,323.60673 C 180.27281,332.21039 180.59471,333.39224 186.8919,332.9077 L 190.28381,332.64671 L 190.27827,323.85631 z M 301.81194,329.1872 C 304.5869,325.43388 304.55934,324.97878 301.36364,321.78307 C 298.76219,319.18162 298.75673,319.14671 300.95153,319.14671 C 303.00483,319.14671 303.12523,318.82004 302.51799,314.89671 C 301.16613,306.16245 291.96771,301.66983 281.75,304.75336 C 279.59227,305.40453 279.43476,309.43271 281.5,311.14671 C 283.56,312.85636 283.38012,314.14671 281.08179,314.14671 C 277.48864,314.14671 276,315.31734 276,318.14291 C 276,322.11326 278.68755,324.64909 284.98771,326.62326 C 288.00596,327.56903 292.05596,329.17882 293.98771,330.20058 C 298.7033,332.69477 299.27326,332.62096 301.81194,329.1872 z M 312.42916,325.67795 C 317.43858,319.81437 322.53441,309.55007 325.52285,299.30399 C 327.70576,291.81969 326.97597,289.80868 321.89915,289.31853 C 320.02962,289.13803 317.78337,288.34493 316.90749,287.55607 C 315.49148,286.28075 315.13725,286.53877 313.71128,289.88425 C 312.82924,291.9536 310.73337,296.87214 309.05379,300.81432 C 306.02075,307.93323 304.80915,318.29269 306.86126,319.56096 C 307.33495,319.85372 309.40861,316.84278 311.46939,312.86998 C 315.47719,305.14369 317.79637,301.87001 316.12519,306.29801 C 315.57484,307.75622 313.5271,312.12143 311.57465,315.99847 C 309.62221,319.87551 308.29366,323.7484 308.62233,324.60489 C 308.95099,325.46138 308.48505,327.28368 307.5869,328.65443 C 304.66614,333.11207 307.63937,331.28446 312.42916,325.67795 z M 205.76597,317.31251 C 206.46226,316.87054 209.22744,312.71493 211.91082,308.07782 C 215.55652,301.77773 216.50032,299.36396 215.64484,298.52806 C 214.05689,296.97643 208.25794,295.14671 204.92833,295.14671 C 201.83133,295.14671 200.82478,297.23127 198.51894,308.42059 C 197.38835,313.90688 197.44224,314.58895 199.14051,316.28722 C 201.10508,318.25179 203.66267,318.64758 205.76597,317.31251 z M 191.25628,303.23808 C 192.05976,291.51564 193.67917,290.16369 193.17749,301.63418 C 192.82283,309.74319 192.99041,311.14671 194.31333,311.14671 C 195.95725,311.14671 196.4188,310.06013 197.49919,303.64671 C 197.8698,301.44671 199.75829,295.82171 201.69585,291.14671 C 203.63341,286.47171 205.59451,281.6706 206.05385,280.47758 C 206.70201,278.79412 206.30468,277.72412 204.27931,275.69875 L 201.66962,273.08905 L 198.91571,275.72746 C 197.40107,277.17858 195.91046,279.36731 195.60326,280.5913 C 195.21559,282.13593 193.78083,283.19541 190.91331,284.05454 C 187.5109,285.07392 186.51505,285.97169 185.26957,289.14238 C 183.88357,292.67077 183.36421,293.04648 179.05295,293.63943 C 175.30187,294.15533 174.0087,294.86197 172.67077,297.1269 C 171.22786,299.56957 171.16849,300.5051 172.2469,303.80704 L 173.50094,307.64671 L 179.6658,307.94223 C 183.5313,308.12753 186.28089,308.78024 187.03778,309.69223 C 189.6587,312.85025 190.70743,311.24575 191.25628,303.23808 z M 310.4571,293.14671 C 313.91814,284.83851 315.16569,283.45526 317.28571,285.57528 C 318.15,286.43957 320.00514,287.14671 321.40825,287.14671 C 323.37348,287.14671 324.42332,286.23725 325.97968,283.18655 C 328.54785,278.15252 328.51861,277.57441 325.54545,274.60126 C 322.77274,271.82854 317.51787,271.37576 312.57799,273.48393 L 309.65598,274.73094 L 312.57799,277.08448 C 315.64646,279.55598 315.58174,279.56437 309.04589,277.54208 C 307.29965,277.00177 307.15207,277.30894 307.65849,280.42967 C 307.97018,282.35038 307.73821,284.75997 307.14301,285.7843 C 306.24714,287.32605 306.04948,286.87192 305.99497,283.14671 C 305.9308,278.76063 305.8939,278.71 304.53753,281.14671 C 303.20818,283.53489 303.15386,283.42725 303.32297,278.74029 C 303.48954,274.12375 303.3298,273.78706 300.6193,273.04181 C 299.03492,272.60619 296.78492,271.39959 295.6193,270.36048 C 293.77195,268.71362 292.92257,268.60751 289,269.53349 L 284.5,270.59578 L 288.5,270.94509 C 292.29871,271.27682 296,273.4395 296,275.32738 C 296,275.80626 294.67235,275.51151 293.04966,274.67239 C 287.1903,271.6424 281.17966,273.14965 275.56291,279.05743 C 271.84711,282.96577 272.83953,282.9999 278.1587,279.14671 C 281.02068,277.0735 283.41221,276.16756 285.90004,276.2142 C 289.47242,276.28118 289.46338,276.29154 284.72123,277.56692 C 279.80714,278.88854 275,282.47568 275,284.82102 C 275,286.47673 274.96009,286.47916 279.59933,284.54076 C 284.23611,282.60339 291.72921,283.08404 295.51008,285.56136 C 297.62633,286.94798 297.90378,287.55772 296.94448,288.71361 C 295.94847,289.91373 296.38465,290.16351 299.62756,290.25006 L 303.5,290.35341 L 299.75,291.3494 C 296.33856,292.25547 296,292.65525 296,295.77743 C 296,299.70162 298.16191,301.1512 301.19212,299.2588 C 302.95158,298.16 303.0214,298.23821 301.99424,300.15747 C 300.57078,302.81724 298.35907,303.6896 296.64526,302.26726 C 295.91415,301.6605 295.01653,301.46351 294.65053,301.82951 C 294.28453,302.19551 295.67594,303.43771 297.74254,304.58996 C 299.80914,305.74222 301.93551,307.66867 302.46781,308.87097 C 303.33946,310.83977 303.64992,310.49012 305.59247,305.35184 C 306.77874,302.21402 308.96782,296.72171 310.4571,293.14671 z M 292.8,300.94671 C 294.67857,299.06814 294.304,292.42831 292.25,291.19714 C 290.59903,290.20754 290.59706,290.0726 292.2152,288.81265 C 294.85837,286.75456 292.43215,285.14671 286.68337,285.14671 C 281.08443,285.14671 281.15686,284.44295 285.62851,295.39671 C 288.3919,302.16592 290.18957,303.55714 292.8,300.94671 z M 181.40654,290.8387 C 182.39039,290.1193 184.29152,285.9568 185.63128,281.5887 C 187.68686,274.88678 187.99072,274.36033 187.57735,278.2171 C 187.08911,282.77241 187.09699,282.78609 189.96463,282.36521 C 191.96035,282.0723 193.19699,281.08536 194.00129,279.1436 C 194.63903,277.60396 196.24963,275.32137 197.58041,274.07117 C 199.54888,272.22189 200.01682,270.75853 200.09019,266.2224 C 200.17394,261.0447 200.24736,260.8787 201.11878,263.89671 C 202.13501,267.41623 203.42951,268.07578 204.39301,265.56492 C 205.69782,262.16463 205.02416,259.38632 202.75,258.78886 C 201.5125,258.46375 200.35422,258.62361 200.17604,259.14411 C 199.99786,259.66462 198.65246,258.97814 197.18626,257.6186 C 195.72006,256.25906 193.9757,255.14671 193.30991,255.14671 C 192.64412,255.14671 191.6407,254.35921 191.0801,253.39671 C 190.16162,251.81978 190.05781,251.86098 190.03041,253.8133 C 190.01355,255.01451 191.22534,256.93859 192.75,258.13145 L 195.5,260.28301 L 192.75,259.69581 C 189.25733,258.95002 189.20041,260.40962 192.55089,264.80232 C 193.95388,266.64173 194.64235,268.14671 194.08083,268.14671 C 193.5193,268.14671 192.06178,266.79671 190.84188,265.14671 C 188.24927,261.64002 187.36908,261.51137 184,264.14671 C 182.625,265.22225 180.29516,266.11224 178.82258,266.12447 C 177.13914,266.13846 175.37573,267.12489 174.07258,268.78157 C 171.64938,271.86217 171.35392,275.14671 173.5,275.14671 C 175.84481,275.14671 175.3123,277.14403 171,284.52347 C 168.8,288.28823 167,291.54359 167,291.7576 C 167,292.8081 179.8326,291.9896 181.40654,290.8387 z M 169.45106,283.80061 C 173.56235,276.44893 173.62801,276.14671 171.11394,276.14671 C 169.96682,276.14671 168.62801,277.42003 167.69677,279.39671 C 166.0199,282.95608 164.44332,290.14671 165.33977,290.14671 C 165.64906,290.14671 167.49914,287.29097 169.45106,283.80061 z M 284.44363,269.14671 C 286.56956,269.14671 286.39969,268.21086 283.75,265.32544 L 281.5,262.87528 L 283.88543,264.11866 C 286.16997,265.30945 286.24194,265.24681 285.5871,262.63771 C 285.21103,261.13933 284.6361,258.57721 284.30948,256.9441 C 283.61226,253.45801 281.9612,252.56192 279.07814,254.10489 C 277.18272,255.11929 277,256.11284 277,265.40476 L 277,275.59243 L 279.94363,272.36957 C 281.56263,270.597 283.58763,269.14671 284.44363,269.14671 z M 306.62663,267.39671 L 306.08887,262.64671 L 307.43339,266.14671 L 308.77791,269.64671 L 309.81119,267.14671 L 310.84447,264.64671 L 311.54723,267.89671 C 311.93376,269.68421 312.86875,271.14671 313.625,271.14671 C 314.67708,271.14671 315,269.26792 315,263.14671 C 315,254.83706 316.05266,252.9904 317.85016,258.14671 C 319.1739,261.94401 321,262.03386 321,258.3017 C 321,255.01637 318.9428,252.85641 313.74552,250.68485 C 307.81751,248.20797 304.51887,248.67227 301.58357,252.39671 C 299.48282,255.06223 299.02018,255.29602 299.01109,253.69671 C 299.00282,252.24238 298.71157,252.03514 297.86529,252.88142 C 297.01902,253.72769 297.15675,255.08121 298.40714,258.20624 C 300.80955,264.21044 299.79893,264.04757 296.51763,257.90172 C 294.97451,255.01146 291.50407,249.36623 288.80555,245.35674 C 285.61034,240.60928 284.61427,238.51338 285.94957,239.34729 C 287.07731,240.05157 288,240.96956 288,241.38726 C 288,241.80496 288.46156,242.14671 289.02568,242.14671 C 289.61361,242.14671 289.40021,240.88752 288.52568,239.19637 C 286.29228,234.87746 286.72275,234.22317 289.54521,237.64671 L 292.01849,240.64671 L 290.48699,236.14671 C 289.64467,233.67171 287.92441,229.84671 286.66421,227.64671 C 284.73334,224.27592 283.911,223.68087 281.43646,223.86387 C 276.20944,224.25042 266,229.70689 266,232.11394 C 266,232.45417 268.4258,233.55709 271.39067,234.56488 C 274.35554,235.57267 278.06804,237.42428 279.64067,238.67957 L 282.5,240.96191 L 279.90612,240.46758 C 277.68931,240.0451 276.76287,240.73792 273.53314,245.23347 C 269.97454,250.18678 269.85989,250.57109 271.56815,251.8202 C 274.4757,253.94625 277.67381,253.37201 281.4652,250.04312 C 283.40934,248.33614 285,247.40958 285,247.9841 C 285,248.55862 284.55,249.30679 284,249.64671 C 282.33554,250.67541 282.84961,251.62666 286.11123,253.55334 C 288.2474,254.81521 288.8376,255.62904 287.99446,256.15013 C 285.85809,257.47049 288.60798,263.74169 291.92597,265.11605 C 293.48746,265.76284 296.0271,267.60933 297.56961,269.21937 C 299.59201,271.3303 301.32105,272.14671 303.76928,272.14671 L 307.16439,272.14671 L 306.62663,267.39671 z M 180.77083,262.95921 C 180.15363,261.1076 178.30955,260.89766 177.65459,262.60445 C 177.23981,263.68534 177.67661,264.14671 179.11472,264.14671 C 180.25423,264.14671 180.99065,263.61867 180.77083,262.95921 z M 183.75463,256.94494 C 183.26827,251.8832 183.30148,251.8008 184.98835,253.88399 C 186.8669,256.2039 189,255.26242 189,252.11338 C 189,249.55386 190.17771,249.0138 191.61932,250.91225 C 192.81448,252.48616 192.93934,252.40109 192.9682,249.99322 C 192.99806,247.50169 192.67956,247.31677 187.75,246.96353 C 184.8625,246.75662 182.35366,246.92722 182.1748,247.34263 C 181.99593,247.75805 179.3965,246.24584 176.39829,243.98217 C 171.09352,239.97703 168.29869,239.35772 171.1075,242.80977 C 172.33401,244.31717 172.2914,244.44299 170.75,243.86533 C 169.35005,243.34067 169.00273,243.75329 169.01365,245.92809 C 169.04171,251.51382 169.98534,253.09964 172.93052,252.51061 C 175.13796,252.06912 175.99291,252.50265 177.45825,254.80653 C 179.44445,257.92934 183.08906,262.14671 183.80154,262.14671 C 184.05065,262.14671 184.02954,259.80591 183.75463,256.94494 z M 299.42803,245.39671 L 300.91992,242.64671 L 300.95996,245.39671 C 301.00433,248.44395 303.94815,249.38959 304.073,246.39671 C 304.11315,245.43421 304.48218,242.28658 304.89305,239.40197 C 305.54556,234.8209 305.37814,233.91664 303.57005,232.25606 C 300.97087,229.86893 291.90682,224.14671 290.72476,224.14671 C 289.77486,224.14671 290.44803,228.49451 292.27308,234.14671 L 293.40319,237.64671 L 294.08328,234.64671 C 294.56319,232.52974 294.7982,233.72184 294.88169,238.69671 C 294.94871,242.69025 295.52025,246.26696 296.2,246.94671 C 297.78178,248.52849 297.71042,248.56275 299.42803,245.39671 z M 197.82808,243.06731 C 203.08857,238.9294 219,209.64283 219,204.09827 C 219,203.02491 219.45,202.14671 220,202.14671 C 221.34766,202.14671 221.2644,203.14587 219.5,208.14671 C 217.67597,213.31657 217.67938,213.14671 219.39957,213.14671 C 220.17324,213.14671 221.60572,215.38974 222.60273,218.16232 C 223.5947,220.92091 224.8774,223.02372 225.45316,222.83523 C 227.7468,222.08436 231.16657,215.32159 234.55879,204.82841 C 238.11301,193.83412 238.11922,193.78328 236.22122,191.2198 C 232.6221,186.35875 228.18893,184.14481 222.10212,184.16867 C 214.57888,184.19817 208.8423,186.91678 205.43325,192.06821 C 203.94879,194.31138 202.55988,196.14671 202.34679,196.14671 C 201.64801,196.14671 205.94578,188.29826 207.00202,187.64546 C 210.17386,185.68516 203.05447,182.76791 197.22352,183.63862 C 190.57551,184.63132 185.90596,189.76816 182.62793,199.69481 C 175.36584,221.68606 176.10459,241.6873 184.3083,245.1901 C 187.57315,246.58412 194.79966,245.44946 197.82808,243.06731 z M 241.43155,180.509 C 242.70908,175.63474 245.17155,166.28251 246.90369,159.72627 C 250.462,146.25791 250.49885,142.99182 246.99717,151.44025 C 245.69631,154.5788 244.27898,157.14671 243.84754,157.14671 C 243.41611,157.14671 239.46921,155.30994 235.07666,153.06501 C 229.80174,150.3691 226.40679,149.20021 225.07727,149.62219 C 223.97014,149.97357 220.59251,152.99251 217.57141,156.33092 C 211.9079,162.58931 208.92783,169.33857 207.55835,179.00847 C 206.66681,185.30363 208.01601,186.49641 213.30969,184.09306 C 221.16909,180.52485 230.73438,182.04172 236.04922,187.69911 C 237.30982,189.04095 238.51391,189.96613 238.72499,189.75506 C 238.93606,189.54399 240.15401,185.38326 241.43155,180.509 z M 189.97587,174.57532 C 188.42434,169.9853 186.40839,162.72363 185.49596,158.43827 C 182.71117,145.35898 181.09752,141.14671 178.87188,141.14671 C 176.13267,141.14671 172.57124,145.2967 171.10198,150.20067 C 170.05439,153.69721 170.09391,154.505 171.36065,155.48727 C 172.18301,156.12496 173.36179,158.58208 173.98015,160.94752 C 174.88859,164.42259 175.4531,165.13768 176.92033,164.672 C 178.29671,164.23515 179.03399,164.88845 179.96652,167.37118 C 180.64318,169.17272 182.01415,172.22171 183.0131,174.14671 C 184.01206,176.07171 185.15188,179.44671 185.54603,181.64671 C 186.54682,187.23266 186.75198,187.38995 189.95162,185.02436 L 192.79682,182.92081 L 189.97587,174.57532 z M 206.86805,175.39671 C 208.61221,165.69701 212.17194,159.04472 218.76064,153.1723 C 221.86187,150.40823 224.75941,148.14671 225.19962,148.14671 C 226.73598,148.14671 225.97176,146.47007 222.02312,141.1777 C 218.44219,136.37817 217.96927,136.05326 217.27312,137.91436 C 216.54011,139.87402 216.03841,139.69786 207.60219,134.51849 L 198.70439,129.05574 L 195.97105,131.67444 C 194.46772,133.11473 192.4208,136.1727 191.42235,138.46993 C 189.09768,143.8185 189.2873,143.63004 187.62141,142.24747 C 186.46054,141.28403 186.02071,141.58375 185.26243,143.85497 C 184.04635,147.49744 185.7461,156.34478 190.45768,170.89671 L 194.10017,182.14671 L 199.87723,182.14671 L 205.6543,182.14671 L 206.86805,175.39671 z M 275.83189,108.82566 C 279.03233,105.41894 284.74663,90.445008 285.05896,84.646708 C 285.49254,76.597736 285.03466,66.749566 284.163,65.376206 C 283.52116,64.364946 282.24899,64.452586 277.92831,65.805736 C 274.94274,66.740756 272.33581,67.626676 272.13512,67.774446 C 271.93444,67.922216 273.23625,71.553926 275.02804,75.844916 C 280.65734,89.325968 280.22753,100.40116 273.79055,107.73248 C 270.36641,111.63235 272.24834,112.64017 275.83189,108.82566 z M 274.44586,104.14344 C 276.10417,101.32053 276.48596,99.008748 276.42714,92.146708 C 276.38707,87.471708 275.76227,81.876188 275.0387,79.712208 L 273.72312,75.777716 L 271.39405,80.360578 C 268.15968,86.724748 263.39449,89.535158 256.89668,88.910798 C 251.26204,88.369388 244.72256,83.938378 244.18045,80.294578 C 243.68931,76.993386 242.29821,77.743546 241.55392,81.710958 C 241.02444,84.533328 241.42566,86.197328 243.4815,89.705358 C 245.68925,93.472588 246.67897,94.231648 250.09562,94.777988 C 254.92378,95.550038 264.85365,101.74821 267.33885,105.54111 C 269.61535,109.01548 271.84091,108.5778 274.44586,104.14344 z M 209.70318,98.287098 C 216.88366,92.611258 219.69128,88.813438 220.91087,83.126678 C 222.45077,75.946376 222.34869,75.341546 219.03812,72.030976 L 216.07623,69.069086 L 206.78812,69.692956 C 195.47387,70.452926 187.99248,72.392056 185.42601,75.229906 C 182.66879,78.278666 182.96265,85.523608 186.06861,91.073248 C 189.04584,96.392838 197.14043,102.14671 201.64685,102.14671 C 203.82003,102.14671 206.35957,100.93007 209.70318,98.287098 z M 211,79.498558 C 207.41879,78.569406 202.25985,78.211186 196.21246,78.471756 C 180.41744,79.152336 187.61177,74.530316 204.03976,73.443076 C 210.79581,72.995956 213.2368,73.217796 215.72635,74.505196 C 217.4571,75.400196 219.16545,76.605396 219.52268,77.183396 C 220.17403,78.237306 218.3051,81.243618 217.12756,81.036128 C 216.7824,80.975308 214.025,80.283408 211,79.498558 z M 218,78.169756 C 218,77.632436 216.85873,76.445016 215.46384,75.531056 C 213.42089,74.192456 211.30557,73.970496 204.58646,74.389696 C 192.98961,75.113196 189.89267,77.034186 200,77.234606 C 204.125,77.316406 208.85,77.726846 210.5,78.146706 C 214.91492,79.270108 218,79.279598 218,78.169756 z M 243.41534,71.313766 C 245.84494,66.519186 251.35586,61.146706 253.84439,61.146706 C 254.64615,61.146706 254.98694,58.008116 254.95736,50.896706 L 254.91473,40.646703 L 250.92256,45.146706 C 244.59092,52.283766 240.69541,62.171706 239.04873,75.285936 C 238.06774,83.098558 238.96914,87.373638 240.14849,80.501758 C 240.53973,78.222036 242.00982,74.087436 243.41534,71.313766 z M 322.98519,72.611516 L 326.47038,70.852096 L 317.98519,67.625096 C 313.31834,65.850236 306.72477,64.162576 303.33281,63.874736 L 297.16563,63.351376 L 297.72087,68.999036 C 298.02625,72.105256 298.46976,74.864976 298.70645,75.131766 C 298.94313,75.398546 299.95086,74.537586 300.94584,73.218506 L 302.75489,70.820196 L 303.99821,73.143356 C 305.09926,75.200696 305.34781,75.276586 306.17045,73.806606 C 308.54461,69.564216 311.96157,74.179386 310.56529,79.742588 C 309.9405,82.231958 310.11044,82.175008 314.70688,78.354696 C 317.3431,76.163626 321.06834,73.579186 322.98519,72.611516 z M 253.9504,70.387946 C 256.60784,68.236086 255.79337,64.883886 252.72485,65.343836 C 250.20966,65.720836 248.47717,68.341836 249.30947,70.510776 C 250.11354,72.606156 251.24812,72.576126 253.9504,70.387946 z M 205.65993,66.590526 C 205.98837,65.734626 205.79519,63.597126 205.23064,61.840526 L 204.20418,58.646706 L 204.10209,61.462446 C 204.04594,63.011106 203.53417,65.148606 202.96482,66.212446 C 202.14613,67.742176 202.25726,68.146706 203.4962,68.146706 C 204.35781,68.146706 205.33149,67.446426 205.65993,66.590526 z M 210.80902,63.287786 C 211.17636,58.291056 207.71886,50.050466 203.51226,45.896706 C 201.17355,43.587376 199.03217,42.403786 198.98918,43.396706 C 198.98322,43.534206 198.31562,45.831126 197.50562,48.500986 L 196.0329,53.355266 L 198.35179,52.773256 C 202.44728,51.745356 207,57.679266 207,64.045136 C 207,69.955006 210.36811,69.285316 210.80902,63.287786 z M 197.8,59.946706 C 199.60627,58.140436 199.24267,56.146706 197.10699,56.146706 C 195.13984,56.146706 193.57671,58.652786 194.55577,60.236946 C 195.31993,61.473376 196.367,61.379706 197.8,59.946706 z "
     id="path2220" />
</svg>
