<svg id="Capa_1" enable-background="new 0 0 510.999 510.999" height="512" viewBox="0 0 510.999 510.999" width="512" xmlns="http://www.w3.org/2000/svg"><g><path fill="black" d="m479.94 256.517c0-33.538-7.19-65.693-21.363-95.677 22.002-33.04 37.845-63.084 45.901-87.134 9.863-29.443 8.526-50.71-3.976-63.212-13.809-13.807-38.259-13.988-72.668-.536-22.586 8.832-48.863 23.221-78.158 42.781-29.563-13.711-61.214-20.666-94.178-20.666-6.184 0-12.43.255-18.564.758-52.847 4.329-102.653 27.443-140.247 65.086-65.512 65.598-83.993 168.996-44.828 253.089-19.095 28.738-33.188 54.567-41.904 76.832-13.451 34.411-13.271 58.859.536 72.667 6.991 6.991 16.724 10.49 29.1 10.489 9.623 0 20.846-2.117 33.611-6.353 23.816-7.902 53.575-23.496 86.309-45.187 30.057 14.273 62.316 21.513 95.987 21.513 24.226 0 48.004-3.837 70.775-11.396 6.881 6.183 12.25 14.004 15.541 22.896 1.452 3.924 5.194 6.53 9.379 6.53s7.927-2.605 9.379-6.53c5.852-15.814 18.277-28.24 34.092-34.092 3.924-1.452 6.529-5.194 6.529-9.378s-2.605-7.926-6.529-9.378c-2.002-.741-3.948-1.588-5.834-2.533 57.316-42.287 91.11-108.718 91.11-180.569zm-241.373-203.752c5.594-.458 11.29-.691 16.931-.691 31.828 0 62.304 7.103 90.585 21.112 12.11 5.994 23.63 13.201 34.332 21.473-7.014 16.665-19.218 36.972-35.433 59.381-9.167-9.119-21.67-14.432-35.022-14.432-27.404 0-49.7 22.295-49.7 49.7 0 16.681 8.194 31.755 21.36 40.849-8.454 9.08-17.267 18.223-26.4 27.361-61.226 61.26-122.225 107.856-161.68 123.792-5.42-7.024-10.367-14.398-14.821-22.045 38.929-19.403 90.864-59.491 144.608-111.844 3.956-3.854 4.039-10.185.186-14.141-3.854-3.955-10.186-4.039-14.141-.185-51.754 50.415-103.131 90.146-139.87 108.415-2.892-6.304-5.435-12.716-7.651-19.22 28.843-16.392 63.391-42.365 100.461-75.574 4.113-3.685 4.461-10.007.775-14.121-3.687-4.114-10.008-4.461-14.121-.776-34.225 30.661-66.027 54.855-92.764 70.632-1.918-8.363-3.292-16.864-4.137-25.48 16.142-10.74 33.495-23.776 51.673-38.833 4.253-3.522 4.846-9.827 1.322-14.08-3.522-4.252-9.825-4.845-14.08-1.322-13.892 11.506-27.25 21.771-39.899 30.671.068-4.54.278-9.078.641-13.537 8.065-100.21 86.645-178.899 186.845-187.105zm56.755 162.371c-9.196-5.183-15.063-14.925-15.063-25.829 0-16.377 13.323-29.7 29.7-29.7 8.942 0 17.249 3.989 22.826 10.701-11.148 14.398-23.725 29.458-37.463 44.828zm55.873 252.555c-5.116-7.256-11.438-13.578-18.694-18.694 7.257-5.117 13.578-11.438 18.694-18.694 5.116 7.256 11.438 13.578 18.694 18.694-7.257 5.117-13.578 11.438-18.694 18.694zm21.095-43.621c-9.776-5.247-9.204-23.678-20.253-24.696-5.454-.503-10.005 4.27-12.337 9.226s-3.446 10.558-6.764 14.915c-4.835 6.349-13.16 8.651-20.129 12.541-6.969 3.889-13.413 11.916-10.236 19.237-23.714 5.905-48.561 7.224-72.767 3.864 14.073-10.319 28.147-20.639 42.22-30.958 3.96-2.904 8.084-6.004 10.115-10.475 2.032-4.471 1.073-10.707-3.321-12.898-4.706-2.347-10.162.901-14.402 4.012-13.804 10.13-27.609 20.26-41.413 30.389-6.473 4.75-13.139 9.595-20.886 11.701s-16.932.896-22.306-5.067c33.049-24.069 64.779-49.948 95.002-77.481 5.644-5.142 11.451-14.043 6.044-19.434-5.031-5.016-13.411-.368-18.786 4.278-60.012 51.876-121.72 104.766-195.975 132.675-11.38 4.277-28.853 9.51-39.779 1.204-11.811-8.98-5.127-30.617-1.062-42.305 8.971-25.794 21.556-50.328 37.272-72.662 5.865 8.158 11.73 16.316 17.594 24.474 1.903 2.647 4 5.443 7.081 6.506 3.692 1.274 7.705-.286 11.267-1.888 59.936-26.95 110.133-71.374 157.296-117.137 56.512-54.835 111.048-113.847 144.87-184.957 1.548-3.254 3.083-6.906 2.036-10.354-.947-3.118-3.762-5.235-6.413-7.13-8.413-6.014-16.825-12.029-25.238-18.043 27.568-20.821 59.67-35.604 93.412-43.017 5.289-1.162 10.989-2.112 15.976-.002 10.853 4.592 11.472 19.7 8.995 31.221-6.204 28.861-20.491 55.321-36.151 80.346-33.557 53.625-74.112 102.61-117.626 148.526-5.851 6.174-11.47 17.028-4.452 21.834 5.68 3.89 13.017-1.434 17.743-6.44 34.368-36.408 66.546-74.882 96.303-115.145 17.063 42.385 19.265 90.586 6.138 134.35-13.126 43.762-41.494 82.794-79.068 108.79z"/><path fill="black" d="m500.999 470.997h-10v-10c0-5.523-4.478-10-10-10s-10 4.477-10 10v10h-10c-5.522 0-10 4.477-10 10s4.478 10 10 10h10v10c0 5.523 4.478 10 10 10s10-4.477 10-10v-10h10c5.522 0 10-4.477 10-10s-4.477-10-10-10z"/><circle fill="black" cx="470.999" cy="408.997" r="10.004"/><path fill="black" d="m249.999 138.997c16.542 0 30-13.458 30-30s-13.458-30-30-30-30 13.458-30 30 13.458 30 30 30zm0-40c5.514 0 10 4.486 10 10s-4.486 10-10 10-10-4.486-10-10 4.487-10 10-10z"/><circle fill="black" cx="306.522" cy="325.967" r="10.005"/></g></svg>