<?xml version="1.0" encoding="iso-8859-1"?>
<!-- Generator: Adobe Illustrator 19.0.0, SVG Export Plug-In . SVG Version: 6.00 Build 0)  -->
<svg version="1.1" id="Layer_1" xmlns="http://www.w3.org/2000/svg" xmlns:xlink="http://www.w3.org/1999/xlink" x="0px" y="0px"
	 viewBox="0 0 512 512" style="enable-background:new 0 0 512 512;" xml:space="preserve">
<g>
	<g>
		<path fill="black" d="M256,161.157c-52.296,0-94.843,42.547-94.843,94.843s42.547,94.843,94.843,94.843s94.843-42.547,94.843-94.843
			S308.296,161.157,256,161.157z"/>
	</g>
</g>
<g>
	<g>
		<path fill="black" d="M512,256l-122.058-55.48l47.077-125.538L311.48,122.059L256,0l-55.48,122.058L74.981,74.981l47.077,125.538L0,256
			l122.058,55.48L74.981,437.019l125.539-47.077L256,512l55.48-122.058l125.539,47.077L389.942,311.48L512,256z M256,380.872
			c-68.854,0-124.872-56.017-124.872-124.872S187.146,131.128,256,131.128S380.872,187.144,380.872,256S324.855,380.872,256,380.872
			z"/>
	</g>
</g>
<g>
</g>
<g>
</g>
<g>
</g>
<g>
</g>
<g>
</g>
<g>
</g>
<g>
</g>
<g>
</g>
<g>
</g>
<g>
</g>
<g>
</g>
<g>
</g>
<g>
</g>
<g>
</g>
<g>
</g>
</svg>
