<?xml version="1.0" encoding="iso-8859-1"?>
<!-- Generator: Adobe Illustrator 19.0.0, SVG Export Plug-In . SVG Version: 6.00 Build 0)  -->
<svg version="1.1" id="Layer_1" xmlns="http://www.w3.org/2000/svg" xmlns:xlink="http://www.w3.org/1999/xlink" x="0px" y="0px"
	 viewBox="0 0 512 512" style="enable-background:new 0 0 512 512;" xml:space="preserve">
<g>
	<g>
		<path fill="black" d="M512,256l-122.058-55.48l47.077-125.538L311.48,122.059L256,0l-55.48,122.058L74.981,74.981l47.077,125.538L0,256
			l122.058,55.48L74.981,437.019l125.539-47.077L256,512l55.48-122.058l125.539,47.077L389.942,311.48L512,256z M439.431,256
			l-60.057,27.299l-0.563-1.498l-0.682,0.255c1.792-8.407,2.743-17.122,2.743-26.056c0-8.934-0.951-17.648-2.743-26.056l0.682,0.255
			l0.563-1.498L439.431,256z M323.936,149.459l61.77-23.164l-23.164,61.77l-1.455-0.662l-0.325,0.716
			c-9.571-14.72-22.157-27.307-36.878-36.878l0.715-0.325L323.936,149.459z M256,72.569l27.299,60.057l-1.498,0.562l0.256,0.683
			c-8.407-1.792-17.123-2.743-26.057-2.743s-17.649,0.951-26.057,2.743l0.256-0.683l-1.497-0.562L256,72.569z M188.064,149.459
			l-0.662,1.456l0.715,0.325c-14.72,9.571-27.307,22.158-36.878,36.878l-0.325-0.716l-1.455,0.662l-23.164-61.77L188.064,149.459z
			 M72.569,256l60.057-27.299l0.563,1.498l0.682-0.255c-1.792,8.407-2.743,17.122-2.743,26.056c0,8.934,0.951,17.648,2.743,26.056
			l-0.682-0.255l-0.563,1.498L72.569,256z M188.064,362.541l-61.77,23.164l23.164-61.77l1.455,0.662l0.325-0.716
			c9.571,14.72,22.157,27.307,36.878,36.878l-0.715,0.325L188.064,362.541z M256,439.431l-27.299-60.057l1.497-0.562l-0.256-0.683
			c8.407,1.792,17.123,2.743,26.057,2.743c8.934,0,17.649-0.951,26.057-2.743l-0.256,0.683l1.498,0.562L256,439.431z M256,350.843
			c-52.296,0-94.843-42.547-94.843-94.843s42.547-94.843,94.843-94.843s94.843,42.547,94.843,94.843S308.296,350.843,256,350.843z
			 M323.936,362.541l0.662-1.456l-0.715-0.325c14.72-9.571,27.307-22.158,36.878-36.878l0.325,0.716l1.455-0.662l23.164,61.77
			L323.936,362.541z"/>
	</g>
</g>
<g>
</g>
<g>
</g>
<g>
</g>
<g>
</g>
<g>
</g>
<g>
</g>
<g>
</g>
<g>
</g>
<g>
</g>
<g>
</g>
<g>
</g>
<g>
</g>
<g>
</g>
<g>
</g>
<g>
</g>
</svg>
