<svg xmlns="http://www.w3.org/2000/svg" viewBox="0 0 908 459"><path fill="#fff" d="M0 0h908v459H0V0z"/><path d="M97 22.34c5.58-5.15 11.11-10.37 16.86-15.32 19.69.04 39.38.27 59.07.39 11.31-.1 22.63-.15 33.93.29 1.52.9 2.54 2.42 3.78 3.65 15.24 16.46 30.48 32.91 45.73 49.35.67.69 1.04 1.51 1.12 2.46 1.32 14.28 1.76 28.66 3.49 42.9-17.69 26.39-35.58 52.66-53.55 78.86-2.32.63-3.33-2.17-4.84-3.39-25.44-26.59-50.69-53.35-76.06-79.99-8.21.09-16.41-.01-24.61-.05-.48-1.81-.6-3.68-.63-5.55-1.46.03-2.92.05-4.38.07-.54-5.32-.04-10.68-.16-16.01.25-19.22.32-38.44.25-57.66z"/><path fill="#fff" d="M99.82 24.16c5.14-4.49 9.84-9.51 15.22-13.71 2.44-.21 4.91-.08 7.36-.14-1.76 2.19-3.9 4.59-3.44 7.64-.36 5.68 5.71 9.67 10.97 8.82-3.78 8.55-2.04 19.19 4.29 26.07 6.69 7.7 18.22 10.07 27.61 6.34-1.58 4.23-1.31 9.55 2.4 12.6 3.93 4.17 10.84 3.5 14.73-.37-.05 5.85 3.09 11.79 8.63 14.09 7.33 3.5 17.04-.74 19.35-8.56 3.06-8.16-3.31-17.86-11.91-18.6-5.02-.7-9.88 1.75-13.08 5.51-.45-6.01-5.7-10.95-11.85-10.29 9.48-9.53 9.09-26.65-1.24-35.41-8.47-8.13-23.08-8.34-31.97-.75-.63-2.64-1.83-5.07-3.72-7.04 14.19.12 28.37.16 42.55.3-.26 5.05 2.39 10.46 7.48 12 4.42.92 9.67 1.18 13.32-1.95 3.07-2.41 3.83-6.42 4.58-10.02 1.5.03 3 .04 4.51.06 1.66 1.77 3.31 3.53 4.98 5.29-2.31 5.78-4.91 12.48-2.11 18.55 3.33 6.44 11.02 9.65 18.02 9.5-4.94 1.75-9.32 5.15-11.28 10.13.77-4.82-1.8-9.45-6.34-11.25-4.78-.91-10.02 1.55-11.36 6.43-2.43 6.52 4.99 13.59 11.39 11.22 2.73-.66 4.47-2.99 5.97-5.18-2.6 9.09 4.53 19.45 14.08 19.61 7.78.79 15.42-5.44 16.35-13.18.67-3.4-.45-6.76-1.54-9.94 3.59 3.71 7.04 7.56 10.53 11.37.69 5.68.7 11.42 1.35 17.1-8.51 3.15-18.33 8.53-19.49 18.55-.39 8.8 3.12 17.88 10.03 23.55-.38.5-1.13 1.52-1.5 2.03-5.8-1.62-12.4-2.75-17.93.32-5.17 2.92-6.66 9.57-5.99 15.07.28 4.67 2.57 8.82 4.48 12.97-6.12 9.42-12.53 18.67-18.99 27.87-23.24-24.43-46.52-48.82-69.67-73.35-3.1-2.88-5.56-6.48-8.96-9.01-7.66-.29-15.33-.04-23-.17.03-.57.08-1.71.1-2.29 12.55.28 25.17.04 37.68.84 14.37 8.41 28.37 17.5 42.57 26.22 3.05 2.32 7 .41 10.47.62 3.21 2.73 8.32 3.23 11.56.27 2.16-1.78 2.83-4.63 3.14-7.28 2.88 3.83 8.48 5.83 12.82 3.24 5.84-2.65 7.28-11.25 2.84-15.78-3.89-4.33-11.58-4.1-15.13.55-1.97 2.18-2.07 5.22-2.18 8-2.41-2.42-5.85-4.63-9.37-3.23-4.62 1.44-7.04 6.62-5.78 11.18-1.81.15-3.61.31-5.41.47-14.55-9.15-29.19-18.14-43.81-27.17-.9-.61-1.89-.89-2.97-.83-13.77-.18-27.54.22-41.3-.27.13-11.39.14-22.79.13-34.19 6.34-2.59 12.36-6.9 15.72-12.98 2.33-4.04 1.3-9.22-1.7-12.62-3.78-4.19-8.86-7.08-14.19-8.82z"/><path fill="#fff" d="M178.65 10.66c6.38.04 12.76.02 19.15.06-.63 2.46-.84 5.38-2.95 7.12-3.37 2.86-8.62 2.95-12.4.86-2.89-1.55-3.38-5.12-3.8-8.04z"/><path fill="#fff" d="M122.51 15.51c1.92-5.11 10.53-4.13 10.84 1.5.83 4.59-4.16 7.37-8.15 6.1-2.13-1.82-4.4-4.72-2.69-7.6z"/><path fill="#fff" d="M143.82 16.85c6.54-2.94 14.62-2.31 20.53 1.8 4.73 3.15 7.95 8.29 9.11 13.83-6-5.66-12.72-11.82-21.36-12.49-8.9-.31-16.12 6.19-20.7 13.2.98-7.11 5.88-13.43 12.42-16.34z"/><path d="M377.69 27.69c62.93-20.74 133.74-15.62 193.23 13.42 17.04 8.39 33.35 18.62 47.05 31.87 25.32 23.91 45.52 52.62 63.94 82.01 17.98 28.68 33.34 58.87 49.25 88.71 8.21 16.31 15.34 33.27 25.63 48.43 4.37 6.13 9.24 12.3 16.03 15.88 10.68 6.13 22.77 8.92 34.36 12.77 4.49 1.49 9.72 4.16 10.27 9.44 1.11 2.49-1.14 4.6-2.92 6.02-3.21 1.59-6.87 1.75-10.37 2.08-9.81 1.11-19.68.53-29.52.66 9.31 19.57 18.7 39.11 28.22 58.57 13.06.14 26.11.75 39.16 1.39 9.15.64 18.36.98 27.37 2.83 10.01 2.35 18.23 9.79 23.09 18.67 2.54 4.72 6.64 8.87 7.02 14.5.38 6.34.39 12.75-.24 19.08-2.32-.12-4.7.25-6.95-.35-1.51-8.48 2.46-18.56-4.15-25.57-1.58-.05-3.15-.09-4.7-.14.25 8.33.73 16.67.45 25.01-2.43-.09-5.2.98-7.39-.36-.63-8.14-.43-16.31-.58-24.47-3.59-.06-7.17-.04-10.76-.07 1 5.28 2.52 10.64 1.52 16.06-.67 3.34-.83 7-2.68 9.94-2.2-.68-5.12-.52-6.59-2.47.43-3.24 1.54-6.37 1.66-9.64.36-4.71-.77-9.34-1.78-13.9-34.01.1-68.01.32-102.01.17-4.19-9.91-8.43-19.81-12.8-29.63-11.05-20.68-22.13-41.35-33.32-61.95-3.59.07-7.55-1.4-10.77.75-8.64 4.65-17.78 8.22-26.78 12.06-15.72 10.15-31.07 20.87-46.73 31.12-1.21.64-2.3 1.81-3.76 1.7-50.06-.12-100.11-.53-150.16-.71.08 9.83-.12 19.67.08 29.51.48 5.93 2 13.11 8.03 15.8 10.62 3.95 23.35 3.65 32.89-2.94 6.45-4.16 10.4-10.93 15.43-16.51.87-1.37 3.27.45 2.47 1.72-2.78 10.87-3.86 22.71-10.62 32.07-6.17 8.62-17.1 12-27.24 12.76-7.02.21-14.28.66-20.98-1.89-10.49-3.52-18.47-12.08-23.54-21.67-7.96-15.14-10.95-32.27-12.6-49.13-28.3-.16-56.6-.17-84.9-.41-22.18-.33-44.37.02-66.54-.52-12.24-6.84-23.89-14.73-35.93-21.92-12.86-7.75-25.58-15.71-38.36-23.58-1.36-1.03-3.04-1.16-4.68-1.25-12.65 20.64-25.46 41.18-38.07 61.84-4.65 9.8-8.58 19.94-13.27 29.72-25.74-.72-51.49-.62-77.24-1.16-8.07-.26-16.16-.28-24.24-.33-1.15 2.18-1.13 4.92-1.73 7.34-1.4 5.6.41 11.22 1.2 16.76-2.23.68-4.49 1.26-6.75 1.83-3.52-8.22-2.96-17.5-.83-26-3.53-.07-7.07-.14-10.6-.17.08 8.36-.35 16.72-1.04 25.05-2.4.07-4.8-.01-7.2-.14.1-8.35.13-16.73.7-25.06-1.48 0-2.96-.05-4.44.06-1.81 1.73-3.18 4.01-3.9 6.41-.62 6-.2 12.05-.4 18.07-1.26 2.51-5.07 1.2-7.38 1.03-.56-3.27-.2-6.6-.29-9.89.11-4.31-.34-8.79 1.2-12.9 1.5-4.12 4.69-7.28 6.67-11.14 5.1-8.92 13.78-16.16 24.05-18.03 19.8-2.97 39.88-2.74 59.84-3.18 10.63-19.41 21.28-38.79 31.76-58.27-9.88-.26-19.88.02-29.63-1.86-2.91-.37-5.39-2.19-6.87-4.68-.53-5.17 3.2-9.53 7.93-11.06 12.27-4.43 25.43-6.66 36.9-13.16 7.2-3.78 12.57-10.16 17.12-16.74 12.78-18.45 20.64-39.68 32.11-58.89 18.33-34.53 37.64-68.63 60.2-100.6 17.37-24.52 36.66-48.08 60.26-66.89 20.12-15.19 43.15-26.29 67.14-33.88z"/><path fill="#fff" d="M416.89 21.54c38.53-6.18 78.44-3.41 115.75 8.07 20.33 6.02 39.82 14.8 57.79 26.05 15.4 9.41 28.56 22 40.66 35.28 26.39 29.69 47.69 63.47 67.09 98.01 10.22 17.9 19.31 36.42 29.29 54.45 8.9 17.56 16.42 35.97 27.81 52.15 4.3 5.98 9.39 11.64 15.92 15.22 10.19 5.88 21.67 8.85 32.8 12.39 3.01 1.06 6.23 1.99 8.71 4.1 1.77 1.64 2.66 5.39-.21 6.42-4.29 1.58-8.98 1.55-13.48 1.85-32.49 1.14-64.97-1.09-97.42-2.41-3.27-.11-5.86 2.33-8.77 3.49-38.19 18.42-81.38 28.87-123.83 23.29-38.71-5.16-75.98-17.71-112.15-32.06-19.1 7.47-38.56 14.06-58.29 19.67-23.66 6.63-47.95 11.6-72.57 12.54-38.83.4-77.01-11.2-111.21-29.09-2.08-1.07-4.5-.38-6.73-.44-28.65 1.06-57.32 2.33-86 1.6-6.91-.62-14.1-.08-20.74-2.35-2.44-.8-2.14-3.46-1.23-5.33 2.33-2.9 6.08-3.93 9.44-5.08 12.31-3.73 25.11-6.8 36.09-13.76 5.87-3.63 10.13-9.18 14.2-14.62 13.25-18.77 21.33-40.47 32.98-60.17 12.9-24.1 26.08-48.08 40.68-71.21 17.84-28.19 37.22-55.67 60.86-79.33 7.65-7.37 15.54-14.55 24.29-20.62 29.28-20.03 63.39-32.31 98.27-38.11z"/><path fill="#fff" d="M212.38 20c6.61 6.81 13.19 13.64 19.62 20.62-4.88 1.07-10.11.24-14.62-1.83-3.11-1.62-6.26-4.25-6.71-7.94-.65-3.69.66-7.36 1.71-10.85z"/><path fill="#fff" d="M132.13 38.84c3.7-7.75 10.33-15 19.37-15.79-3.25 1.29-6.8 2.54-9.07 5.37-4.4 5.43-3.27 14.46 2.6 18.42 5.63 4.32 14.65 2.52 18.22-3.63 3.6-5.29 1.89-12.41-2.37-16.79 4.48 2.75 8.28 6.44 11.79 10.31-4.97 6.95-11.51 14.36-20.61 15.08-8.53-.04-15.36-6.33-19.93-12.97z"/><path d="M321.57 64.57c39.36-26.78 87.16-39.56 134.47-40.45 36.16.21 72.51 7.46 105.47 22.53 17.27 8.06 34.01 17.71 48.03 30.77 27.8 25.58 49.26 57.11 68.92 89.13 11.87 19.76 22.99 39.96 33.56 60.44 4.52 8.77 9.55 17.27 13.81 26.18 9.19 18.54 17.27 38.16 31.23 53.76 10.91 11.75 26.99 15.7 41.47 21.05-.97 1.68-2.58 2.46-4.5 2.19-31.74.14-63.47-1.24-95.15-3.07-16.22 8.63-33.46 15.24-51.05 20.49-23.92 6.75-49.11 10.04-73.9 7.07-21.61-2.38-42.75-7.8-63.51-14.12-17.18-5.37-34.32-10.97-50.96-17.86-1.28-.43-2.72-1.27-4.04-.5-22.1 8.93-44.9 16.03-67.9 22.25-21.05 5.5-42.63 9.62-64.44 9.94-37.95-.11-74.83-12.51-108.26-29.74-11.07.33-22.14.61-33.2 1.26-19.53.1-39.06 1.17-58.6.61-2.27-.15-4.63.1-6.81-.67-1.3-2.35 1.59-2.81 3.2-3.36 10.78-3.14 21.57-6.87 30.97-13.14 8.3-6.1 14.29-14.7 19.63-23.37 10.42-16.79 17.68-35.29 27.81-52.24 17.04-32.06 34.91-63.76 55.38-93.78 19.37-27.88 40.75-55.17 68.37-75.37z"/><path fill="#fff" d="M149.4 27.39c5.69-2.16 12.52 2.4 12.65 8.5.57 6.32-6.49 11.89-12.46 9.63-4.04-1.21-7-5.35-6.67-9.58.07-3.86 2.83-7.36 6.48-8.55z"/><path fill="#fff" d="M444.33 28.35c6.82-1.22 13.85-.79 20.74-.51-6.56 2.8-13.94 1.8-20.74.51z"/><path fill="#fff" d="M100.09 27.58c5.67 2.51 12.52 5.95 13.8 12.65-.93 7.32-7.92 11.68-13.81 14.97-.15-4-.07-8-.12-11.99 2.26.35 4.58.13 6.09-1.78 0-.89-.01-2.68-.01-3.57-1.5-1.88-3.79-2.2-6.05-2.08.1-2.73.1-5.46.1-8.2z"/><path d="M187.5 28.61c7.01-2.5 14.78 4.74 12.92 11.92-1.03 7.64-11.51 11.37-17 5.81-6.24-4.89-3.67-16.02 4.08-17.73z"/><path fill="#fff" d="M468.82 29.78c1.66-.65 3.21-1.98 5.1-1.81 8.79.75 17.57 1.76 26.26 3.34-4.29 3.54-9.4 5.87-14.38 8.26-12.93 5.83-27.44 9.83-41.67 7.25-11.88-2.28-22.84-7.97-32.68-14.85 7.56-.91 15.08-2.13 22.62-3.18 2.42-.64 4.58.85 6.82 1.54 8.92 3.25 19.25 3.74 27.93-.55z"/><path fill="#fff" d="M183.71 41.28c-2.26-4.21 1.64-9.88 6.28-9.82 4.07-.27 8.01 3.45 7.35 7.63.2 2.61-1.91 4.3-3.59 5.92-3.65 1.37-8.7.36-10.04-3.73z"/><path fill="#fff" d="M472.28 48.25c11.69-3.63 22.81-9.02 32.83-16.07 9.29 1.76 18.5 4.01 27.54 6.8-2.93 2.99-5.93 5.9-9.02 8.73-17.11.65-34.24-.07-51.35.54z"/><path d="M148.76 35.12c1.58-1.72 4.2-3.34 6.16-1.17 2.82 2.26-.29 6.9-3.43 5.81-2.05-.59-2.54-2.8-2.73-4.64z"/><path fill="#fff" d="M384.65 38.34c7.36-2.2 14.81-4.17 22.36-5.57 9.21 6.85 19.42 12.27 30.25 16.08-13.9.21-27.8.13-41.71.17-3.58-3.61-7.23-7.16-10.9-10.68z"/><path fill="#fff" d="M374.88 41.43c2.07-.65 4.12-1.32 6.19-1.98 4.71 4.15 8.85 8.97 13.74 12.89 10.39.15 20.79-.32 31.18-.38 32.98.16 65.96-1.04 98.94-.98 3.81-3.62 7.64-7.21 11.42-10.86 1.99.75 4.01 1.46 6.03 2.16-3.61 3.87-8.17 6.94-11.01 11.46 17.53 12.82 35.3 25.32 52.93 38.01.94.52 2.05 1.88 3.18.93 6.37-4.55 12.72-9.13 19.17-13.57 1.44 1.31 2.88 2.62 4.33 3.92-6.96 5.09-14.17 9.85-20.97 15.15-.04 5.38 1.18 10.71 1.97 16.02 15.83.72 31.7.37 47.54.72 1.36 1.94 2.83 3.81 4.2 5.76-14.23-.24-28.46-.18-42.68-.36-1.5-.1-2.96.24-4.38.64 5.83 12.36 12.67 24.24 18.81 36.46 21.32 40.49 42.31 81.15 63.73 121.58 18.62.01 37.24.24 55.87.39 1.06 1.93 2.1 3.87 3.16 5.81-18.04-.03-36.1-.55-54.13-.23-.29.27-.88.81-1.18 1.09 6.37 12.74 13.16 25.28 19.8 37.89-2.17.04-4.32.09-6.47.27-6.9-13.12-13.71-26.29-20.68-39.38-19.81-.16-39.63-.38-59.43-.26-.24.33-.72.99-.96 1.33 6.34 20.64 13 41.19 19.27 61.85-1.87.3-3.73.7-5.59.96-6.84-21.31-13.49-42.69-20.13-64.07-15.23-.71-30.51-.19-45.75-.5-5.91.07-11.83-.33-17.72.1-.52 1.48-.25 3.07-.03 4.59 3.17 19.82 6.22 39.66 9.07 59.52-2.03-.36-4.04-.77-6.03-1.26-3.03-20.08-6.05-40.15-9.14-60.22-.26-1.09-.24-3.24-1.93-2.94-25.42-.11-50.83-.13-76.25-.36-1.33.11-3.39-.48-3.71 1.38-.15 10.93-.15 21.87-.18 32.8-2 .88-3.97 1.84-6.01 2.64-.01-12.27.68-24.57.05-36.81-24.06-.18-48.13-.34-72.2-.46-2.28-.31-1.89 2.66-2.27 4.06-2.41 19.42-4.91 38.83-7.38 58.25-2.01.43-4.03.77-6.04 1.14 2.66-20.87 5.4-41.75 7.82-62.64-.27-.19-.79-.58-1.06-.77-23.23-.37-46.48-.29-69.72-.32-6.81 21.01-13.66 42.02-20.49 63.03-1.85-.52-3.74-.88-5.56-1.47 6.46-20.31 13.23-40.54 19.68-60.86-2.14-1.08-4.57-.85-6.88-.88-15.86.02-31.72-.4-47.57-.13-1.58 1.8-2.47 4.06-3.66 6.11-6.13 11.04-12.18 22.12-18.34 33.13-2.05-.9-4.26-.67-6.42-.56 7.08-12.37 13.97-24.87 20.7-37.43-.78-2-3.03-1.33-4.69-1.48-16.96-.02-33.92-.37-50.88-.19 1.03-1.98 2.09-3.95 3.2-5.88 18.25-.07 36.5.35 54.75.4 1.69.41 2.37-1.29 3.06-2.45 27.4-49.97 54.84-99.91 82.34-149.82.69-1.09 1.98-3.76-.36-3.74-16.33.32-32.66.96-48.98 1.48 2.3-2.98 4.28-6.3 7.1-8.82 2.53-.36 5.1-.28 7.66-.3 11.73.2 23.43-1.26 35.17-1.01 1.51.18 3.6-.12 3.59-2.07.38-6.89 1.41-13.75 1.46-20.66-4.59-4.15-8.95-8.54-13.51-12.71 1.51-1.29 3.07-2.54 4.61-3.8 4.52 4.47 9.16 8.8 13.78 13.15 18.02-9.12 35.54-19.19 53.46-28.5 1.62-.79 3.12-1.8 4.37-3.11-4.06-4.53-8.76-8.44-12.96-12.85z"/><path fill="#fff" d="M150.96 54.95c9.24.6 16.31-6.42 22.03-12.72-2.44 8.32-10.12 14.93-18.88 15.4-8.43.84-16.73-4.04-20.73-11.38 5.07 4.14 10.6 8.89 17.58 8.7z"/><path fill="#fff" d="M232.6 44.03c.77-.23 2.3-.68 3.07-.91 1.07 1.09 2.12 2.19 3.16 3.32-2.06-.84-4.17-1.56-6.23-2.41z"/><path fill="#fff" d="M357.54 48.31c4.68-1.83 9.26-3.93 14.02-5.58 3.81 3.76 7.72 7.41 11.41 11.28-17.55 9.17-34.89 18.72-52.33 28.11-3.95-3.87-8.07-7.57-11.99-11.47 3.77-2.68 7.55-5.36 11.42-7.91 1.87 3.6 5.62 6.31 9.83 5.68 9.46-1.47 18.98-9.78 17.64-20.11z"/><path fill="#fff" d="M545.58 43.66c5.6 1.82 10.93 4.39 16.3 6.81.8 3.29.25 7.16 2.34 10.18 4.06 6.47 11.71 11.25 19.52 10.39 2.33-1.3 4.32-3.11 5.88-5.28 5.01 3.52 9.95 7.17 14.49 11.3-5.86 3.99-11.72 7.96-17.36 12.25-17.18-11.79-33.89-24.26-50.97-36.18 3.24-3.18 6.61-6.23 9.8-9.47z"/><path fill="#fff" d="M204.4 46.39c4.46-1.98 9.6 3.76 7.12 8.05-1.7 4.17-8.36 4.56-10.38.46-2.11-3.09-.07-7.34 3.26-8.51z"/><path fill="#fff" d="M227.43 47.63c7.04-1.81 14.68 4.08 14.83 11.34.71 8.15-8.57 15.53-16.26 12.23-5.71-1.86-9.5-8.28-8.1-14.19 1-4.61 4.86-8.51 9.53-9.38z"/><path fill="#fff" d="M332.78 61.64c7.03-4.25 14.49-7.73 21.59-11.85.34 7.97-7.14 13.8-14.28 15.27-3.05.73-5.5-1.24-7.31-3.42z"/><path d="M113.47 52.69c4.85-2.04 10.92 2.14 10.76 7.39.29 3.49-2.16 6.88-5.38 8.05-3.69 1.48-8.27-.39-10.04-3.91-2.39-4.21-.05-10.2 4.66-11.53z"/><path fill="#fff" d="M565.24 52.35c7.32 3.61 14.28 7.88 21.55 11.6-1.34 2.47-3.87 4.55-6.85 4.04-7.24-1.88-14.72-7.44-14.7-15.64z"/><path fill="#fff" d="M111.84 57.87c2.23-3.81 7.58-2.54 9.42.96-.01 2.67-1.05 6.11-4.21 6.32-3.94 1.09-7.9-3.92-5.21-7.28z"/><path d="M394.02 58.31c31.98-.81 63.99-.76 95.97-1.24 11.76-.43 23.53-.22 35.3-.5 19.47 14.11 39.18 27.9 58.58 42.12.7 5.7 1.65 11.37 2.24 17.08-15.3 8.18-30.85 15.88-46.13 24.11-6.38 3.27-12.61 6.88-19.15 9.82-43.07.1-86.16-.45-129.24-.44-19.9-11.33-39.82-22.65-59.62-34.15.29-8.27 1.04-16.54 1.96-24.76 20.19-10.38 39.96-21.6 60.09-32.04z"/><path fill="#fff" d="M168.39 57.41c5.21-2.74 11.7 3.02 9.88 8.54-1.11 5.64-9.44 7.28-12.69 2.6-3.16-3.46-1.42-9.47 2.81-11.14z"/><path fill="#fff" d="M425.62 60.89c8.9.05 17.82.05 26.71-.38-9.81 5.41-10.34 18.06-10.31 27.96-6.58-.19-13.16-.4-19.73-.39 6.99-2.91 11.48-11.23 9.02-18.58-.87-3.45-3.35-6.08-5.69-8.61z"/><path fill="#fff" d="M463.89 60.48c11.08-.12 22.17-.13 33.24-.45-4.39 3.32-8.31 8.1-8.15 13.9-.29 6.31 3.86 11.95 9.34 14.71-7.94-.22-15.88.07-23.82-.01-.55-7.47-.02-15.48-3.97-22.18-1.44-2.73-4.13-4.36-6.64-5.97z"/><path fill="#fff" d="M510.96 59.83c4.39.16 8.79.04 13.18-.13 18.77 13.66 37.81 26.95 56.54 40.66.88 4.53 1.47 9.12 1.65 13.74-18.18 9.65-36.58 18.87-54.71 28.63-2.55 1.28-5 2.81-7.67 3.81-2.74.23-5.48.14-8.21.17 4.41-3.13 7.86-8.07 7.58-13.69.31-6.28-4-11.75-9.45-14.4 13.4.07 26.79.19 40.19.29 4.63.26 8.81-2.92 11.09-6.75 2.54-4.88 2.25-10.77.39-15.84-1.63-4.19-5.81-7.7-10.49-7.32-13.7.14-27.4-.23-41.09-.1 4.22-2.33 8.25-5.72 9.28-10.68 2.36-7.2-2.03-14.81-8.28-18.39z"/><path fill="#fff" d="M391.98 62.85c4.45-2.89 10.03-1.06 15.01-1.78-3.09 3.26-5.94 7.19-6 11.86-.44 6.45 3.67 12.59 9.53 15.14-15.21-.14-30.41-.02-45.62-.06-4.64-.29-8.79 3.19-10.23 7.46-1.27 3.85-2.21 8.04-.99 12.03.95 5.1 5.25 9.25 10.25 10.39 15.51.22 31.03.07 46.54.1-5.8 2.59-10.23 8.46-9.81 15-.15 5.37 3.21 9.89 7.17 13.14-5.27-.28-10.55-.21-15.82-.23-18.94-11.1-38.15-21.73-57.1-32.8 1.09-6.82 1.12-13.75 2.03-20.59 18.35-9.88 36.84-19.49 55.04-29.66z"/><path fill="#fff" d="M188.47 62.64c6.1-3.32 14.51.69 15.64 7.55 1.76 6.65-4.16 13.82-11.04 13.23-6.34.16-11.55-6.1-10.64-12.27.51-3.58 2.86-6.82 6.04-8.51z"/><path fill="#fff" d="M411.42 62.5c6.45-3.16 14.91.8 16.71 7.71 1.83 5.83-1.36 12.74-7.17 14.83-6.28 2.76-14.39-1.12-16.22-7.72-2.16-5.67 1.33-12.38 6.68-14.82z"/><path fill="#fff" d="M500.48 62.56c6.79-2.48 15 2.35 15.93 9.55 1.6 7.32-5.01 14.77-12.44 14.22-6.9.1-12.69-6.7-11.83-13.45.61-4.62 3.89-8.83 8.34-10.32z"/><path d="M136.29 63.28c6.48-2.3 13.48 4.2 11.82 10.82-.99 6.79-10.39 9.92-15.24 5.01-5.19-4.5-3.12-13.82 3.42-15.83z"/><path fill="#fff" d="M448.8 68.02c3.9-6.88 15.23-6.78 19.03.14 3.73 7.03 3.31 15.29 3.16 23 .93.5 1.92.77 2.97.83 26.04.13 52.08-.32 78.11.43 3.35.02 5.84 2.93 6.75 5.93.97 3.63 1.26 7.59-.06 11.18-1.22 3.23-4.32 5.86-7.84 5.97-26.58-.03-53.17-.63-79.75-.43-.2.33-.6 1-.81 1.33 1.56 7.04 3.09 14.83-.16 21.64-4.26 8.78-18.36 9.37-23.84 1.55-3.67-5.95-2.98-13.43-1.5-19.95.1-1.51 1.4-3.27.07-4.55-26.33-.15-52.67-.39-79-.58-3.77.21-7.25-2.41-8.59-5.85-1.31-3.65-.99-7.66.03-11.34.97-3 3.47-5.87 6.82-5.94 26.6-.13 53.21-.18 79.8.57l.89-1.01c.53-7.69.09-15.97 3.92-22.92z"/><path fill="#fff" d="M137.41 66.46c4.85-2.04 9.91 4.51 6.86 8.81-1.98 4.16-8.59 3.91-10.48-.21-2.11-3.15.13-7.66 3.62-8.6z"/><path d="M156.5 71.7c4.94-2.1 10.91 2.98 9.73 8.21-.4 5.42-7.69 8.17-11.8 4.79-4.69-3.2-3.42-11.42 2.07-13z"/><path d="M114.48 73.47c4.34-2.13 10.09 1.57 9.6 6.47.23 5.14-6.42 8.7-10.6 5.68-4.71-2.59-4.04-10.33 1-12.15z"/><path fill="#fff" d="M154.85 78.01c.27-4.52 7.94-4.39 8.28.05.67 2.85-2 4.44-4.17 5.43-2.21-1.06-4.99-2.52-4.11-5.48z"/><path fill="#fff" d="M115.42 76.67c2.34-1.6 5.86.65 5.66 3.39-.45 2.25-2.67 4.12-5.01 3.24-3.02-.63-3.49-5.38-.65-6.63z"/><path d="M215.38 79.57c7.15-2.82 15.16 4.62 12.91 11.9-1.38 6.92-10.76 10.05-16 5.31-5.91-4.52-4.12-15.09 3.09-17.21z"/><path fill="#fff" d="M306.43 81.02c.93-.8 1.87-1.6 2.81-2.4 4.28 4.09 8.53 8.23 12.87 12.26-.85 5.84-.94 11.74-1.59 17.59-13.63.88-27.33.64-40.96 1.66 1.68-2.1 3.4-4.17 5.13-6.23 3.69 2.58 8.31 4.97 12.92 3.48 4.82-1.3 7.86-5.71 9.91-9.97 2.63-5.17 1.97-11.56-1.09-16.39z"/><path fill="#fff" d="M216.48 82.58c4.51-1.72 9.81 2.59 8.83 7.37-.34 4.91-6.96 7.75-10.7 4.49-4.41-2.93-3.15-10.39 1.87-11.86z"/><path fill="#fff" d="M240.12 96.12c2.73-6.52 9.53-9.84 15.71-12.36.42 7.34 1.54 14.64 1.43 22-2.94 4.78-6.29 9.29-9.35 13.98-6.43-5.78-10.04-15.11-7.79-23.62z"/><path fill="#fff" d="M286.8 101.57c5.87-5.99 11.48-12.23 17.4-18.17 4.14 6.85.64 15.93-5.65 20.11-3.85 2.39-8.35.23-11.75-1.94z"/><path d="M166.3 87.23c5.87-1.69 11.86 5.48 8.9 10.9-2 5.53-10.55 6.38-13.57 1.33-3.21-4.33-.54-11.07 4.67-12.23z"/><path fill="#fff" d="M611.68 96.49c-1.21-3.67.22-7.43 2.04-10.61 5.61 6.03 11.15 12.13 16.78 18.15-2.62 1.62-5.45 3.69-8.72 3.07-5.08-1.19-8.57-5.86-10.1-10.61z"/><path fill="#fff" d="M592.92 99.91c5.3-3.73 10.55-7.54 15.84-11.29-1.36 4.59-.66 9.65 2.02 13.64 2.51 3.88 6.26 7.84 11.25 7.85-.06.19-.16.59-.21.78-8.97.78-18.13 0-27.18.17-.56-3.72-.88-7.48-1.72-11.15z"/><path d="M184.28 90.31c6.53-2.32 14.12 3.66 12.99 10.61-.35 7.8-10.99 11.79-16.55 6.44-5.69-4.77-3.48-14.88 3.56-17.05z"/><path fill="#fff" d="M163.77 93.23c.52-1.91 2.68-2.44 4.23-3.23 2.55.66 4.37 2.5 5.05 5.02-.87 1.84-1.78 4.15-4.07 4.54-3.45.88-6.7-3.11-5.21-6.33z"/><path fill="#fff" d="M185.44 93.49c4.37-1.92 9.63 2.92 8.58 7.49-.59 5.28-8.04 7.48-11.51 3.57-3.53-3.32-1.78-9.89 2.93-11.06z"/><path fill="#fff" d="M216.36 104.46c4.22-1.52 9.33 2.07 8.78 6.64.25 2.85-2.04 5.43-4.65 6.24-4.04 1.58-9.11-2.11-8.65-6.48-.28-2.87 1.91-5.5 4.52-6.4z"/><path fill="#fff" d="M627.51 109.47c1.85-.73 3.44-1.95 5.1-3.02 1.31 1.68 2.69 3.29 4.01 4.96-4.31-.23-8.73.48-12.94-.56.74-1.36 2.61-.76 3.83-1.38z"/><path fill="#fff" d="M199.74 112.78c3.75-1.81 8.28 2.67 6.55 6.46-.6 2.6-3.35 3.35-5.6 3.85-.46-2.17-1.77-3.51-4.11-3.37-.54-2.64.15-6.19 3.16-6.94z"/><path d="M163.53 113.52c5.86-1.26 10.17 6.78 6.1 11.09-3.3 4.55-11.64 2.1-11.73-3.58-.71-3.55 2.19-6.99 5.63-7.51z"/><path fill="#fff" d="M162.33 117.46c3.42-2.72 8.05 2.61 4.5 5.44-3.3 3.35-8.51-2.81-4.5-5.44z"/><path fill="#fff" d="M421.77 117.96c6.66 0 13.33.09 20 .15-1.36 6.72-2.35 14.01.46 20.51 1.32 3.23 3.89 5.68 6.61 7.77-8.27-.22-16.54-.32-24.81-.17 3.47-2.93 6.78-6.61 7.24-11.34 1.36-7.07-3.25-13.94-9.5-16.92z"/><path fill="#fff" d="M473.95 118.43c8.11-.16 16.23.11 24.35.11-6.56 2.88-11.05 10.21-9.49 17.38.65 4.45 3.77 7.87 6.98 10.76-9.74-.26-19.49-.41-29.23-.18 4.26-2.89 7.58-7.24 8.3-12.45.45-5.2.6-10.58-.91-15.62z"/><path fill="#fff" d="M413.48 120.72c5.21-1.2 11.14 1.36 13.43 6.29 3.36 6.21.06 14.86-6.68 17.12-6.22 2.65-13.68-1.37-15.84-7.55-2.44-6.65 2.06-14.68 9.09-15.86z"/><path d="M319.49 136.36c3.08-5.39 5.75-11.04 9.28-16.16 18.27 9.94 36.07 20.73 54.25 30.82 1.79 1.22 5.37 2 4.33 4.88-4.5 35.97-9.16 71.91-13.59 107.89-.67 4.42-.94 8.9-1.82 13.3-11.29.29-22.59-.19-33.88-.1-31.23-.07-62.48.26-93.69-.41-.23-.34-.69-1.03-.92-1.37 5.33-10.98 11.72-21.44 17.38-32.26 19.58-35.51 39.11-71.05 58.66-106.59z"/><path fill="#fff" d="M501.2 121.16c7.25-1.87 15.35 4.28 14.96 11.87.45 7.27-6.98 13.55-14.08 12.17-6.22-.76-11.1-6.99-10.22-13.23.14-5.2 4.41-9.63 9.34-10.81z"/><path d="M527.63 152.77c20.7-10.56 41.1-21.7 61.9-32.08 20.36 38.06 40.04 76.49 60.19 114.67 7.24 13.96 14.77 27.79 21.74 41.88-.13.42-.38 1.26-.51 1.68-28.31.28-56.62-.18-84.92-.41-14.09 0-28.17-.16-42.26-.39-6.47-40.71-12.46-81.5-18.69-122.24-.66-1.8 1.43-2.37 2.55-3.11z"/><path fill="#fff" d="M267.59 125.4c16.18-.61 32.37-.95 48.55-1.61-27.41 49.78-54.79 99.58-82.13 149.39-17.73-.2-35.46-.22-53.18-.15 1.29-2.19 2.5-4.44 3.71-6.68 14.02.11 28.04.24 42.06.23 9.04-17.12 18.14-34.23 28.21-50.77 12.67-20.97 26.8-41.37 35.46-64.45 1.61-5.49 4.05-11.55 1.82-17.2-1.12-3.21-4.78-4.99-8.04-4.38-3.3.55-6.2 2.41-8.76 4.47-8.94 7.56-15.69 17.26-22.33 26.8-16.1 24.26-30.05 49.88-43.18 75.85-3.41-.02-6.81.07-10.21.27 20.65-38.42 41.94-76.71 68.02-111.77z"/><path fill="#fff" d="M601.48 123.64c14.9.07 29.81.19 44.71.2 22.14 29.89 40.61 62.28 58.01 95.09 3.62 7.04 7.27 14.05 11.1 20.98-3.64-.07-7.28-.2-10.91-.25-9.94-20.11-20.22-40.08-31.62-59.41-8.64-14.33-17.48-28.77-29.08-40.94-3.91-3.49-8.14-7.64-13.71-7.77-3.56-.06-6.69 2.89-7.05 6.38-1.02 7.53 1.86 14.82 4.54 21.71 7.73 18.11 17.92 35.03 28.28 51.73 11.24 18.78 21.61 38.08 31.26 57.73 14.33.1 28.65.17 42.98.25 1.17 2.21 2.27 4.47 3.41 6.7-17.4-.09-34.8 0-52.2-.04-26.65-50.75-53.19-101.55-79.72-152.36z"/><path fill="#fff" d="M310.3 159.64c6.61-11.72 12.96-23.57 19.5-35.32 18.14 10.27 36.07 20.89 54.3 31.01-.05 1.32-.1 2.65-.14 3.98-6.75-8.81-18.82-9.21-28.95-9.47-15.24.48-31.23 2.07-44.71 9.8z"/><path fill="#fff" d="M528.34 156.04c20.06-10.23 39.9-20.88 59.92-31.19 26.35 50.3 52.64 100.65 79.02 150.94-40.35-.22-80.69-.98-121.04-.77-5.59-39.71-12.1-79.3-17.9-118.98z"/><path d="M175.48 126.67c6.16-2.03 12.97 3.85 11.71 10.24-.53 6.82-9.89 10.8-14.9 5.86-5.85-4.17-3.72-14.39 3.19-16.1z"/><path fill="#fff" d="M226.29 129.38c3.98-4.44 10.55-3.1 15.78-2.44-4.69 7.77-9.75 15.32-14.72 22.91-3.19-6.13-5.56-14.39-1.06-20.47z"/><path fill="#fff" d="M175.35 130.2c3.84-2.34 9.35 1.38 8.72 5.78.06 4.54-6.11 7.45-9.61 4.47-3.69-2.46-3.06-8.39.89-10.25z"/><path fill="#fff" d="M274.37 139.36c3.57-3.2 7.57-6.82 12.72-6.56 1.58 1.67 3.06 3.78 2.74 6.22-.58 6.44-2.9 12.57-5.42 18.47-8.5 18.97-19.87 36.45-30.82 54.06-10.2 16.98-19.9 34.26-28.91 51.9-12.9-.08-25.81-.16-38.72-.19 3.88-7.55 7.32-15.34 11.67-22.63 4.61-.71 9.38-.24 14.05-.55 12.86-25.09 26.19-50 41.56-73.66 6.39-9.5 12.91-19.03 21.13-27.06z"/><path fill="#fff" d="M628.17 134.85c2.79-.11 5.59.49 7.81 2.27 8.11 5.9 13.95 14.25 19.79 22.27 17.97 26.33 32.3 54.9 46.63 83.31 4.65.18 9.31.46 13.97.5 4.85 7.25 8.42 15.21 12.2 23.03-13.15-.09-26.29-.15-39.44-.1-9.53-19.45-19.93-38.48-31.03-57.08-10.68-17.37-21.4-34.87-28.97-53.88-1.93-5.51-4.04-11.32-3.05-17.26.56-1.1 1.36-2.06 2.09-3.06z"/><path d="M200.43 136.16c3.3-.51 6.94-.35 9.65 1.87 5.6 3.79 6.14 12.73 1.08 17.2-5.22 5.17-15.21 3.3-18.01-3.57-2.94-6.04.92-13.72 7.28-15.5z"/><path fill="#fff" d="M201.27 139.47c5.05-1.86 11.09 3.15 10.03 8.55-.27 6.24-8.95 9.43-13.26 4.93-4.65-3.8-2.61-12.16 3.23-13.48z"/><path d="M535.34 157.27c4.55-3.99 10.75-5.28 16.61-5.91 14.71-1.03 29.69.44 43.77 4.94 4.64 1.55 9.69 3.41 12.65 7.55 1.08 3.75-.09 7.61-1.32 11.16-4.54 12.24-11.64 23.32-18.95 34.07-7.38 10.42-15.23 20.71-25.11 28.9-2.99 2.15-6.66 4.73-10.53 3.57-4.35-2.06-6.86-6.94-6.98-11.64-.22-7.55 2.81-14.66 6-21.34 4.77-9.48 10.96-18.16 17.35-26.59-7.01.23-14.03-.72-20.87-2.18-4.94-1.26-10.08-3.18-13.46-7.18-3.71-4.33-3.46-11.5.84-15.35z"/><path fill="#fff" d="M325.01 156.99c10.09-2.63 20.54-4.08 30.98-3.93 6.15-.02 12.41.63 18.22 2.76 3.52 1.32 7.19 4.07 7.27 8.19.32 4.73-3.75 8.25-7.8 9.81-9.61 3.79-20.14 3.61-30.3 3.61-.26.38-.77 1.13-1.03 1.5 9.61 13.67 20.5 27.39 24.22 44.06 1.48 5.48.09 12.17-5.23 15.04-5.39-1.88-9.45-6.06-13.34-10.04-7.62-8.15-14.23-17.2-20.26-26.58-4.71-7.21-9.07-14.68-12.65-22.52-2.12-4.77-4.04-9.75-4.29-15.02 3.9-3.7 9.14-5.43 14.21-6.88z"/><path fill="#fff" d="M551.45 154.65c8.21-1.07 16.52-.44 24.7.62 8.49 1.27 17.08 2.91 24.85 6.67 1.9 1.16 4.77 2.29 4.53 5-.75 7.96-4.9 15.06-8.55 22.01-9.17 15.88-19.7 31.22-33.03 43.92-2.88 2.41-5.89 5.43-9.79 5.86-2.58-.83-4.1-3.55-4.98-5.96-1.5-7.34 1.4-14.6 4.39-21.18 5.44-11.12 12.76-21.19 20.36-30.91.85-2-1.58-1.95-2.88-1.98-9.19 0-18.62-.39-27.33-3.6-3.8-1.41-7.57-4.09-8.58-8.23-.96-3.51 1.46-6.84 4.31-8.62 3.61-2.22 7.85-3.04 12-3.6z"/><path d="M392.93 157.97c.13-1.21.12-3.37 2-2.93 41.37-.05 82.75.06 124.12.67 6.23 39.35 12.04 78.77 18.11 118.15.16 1.39.26 2.79.29 4.2-49.14-.05-98.28-.07-147.41-.68-4.06-.1-8.14.21-12.17-.34 5.05-39.68 10.12-79.37 15.06-119.07z"/><path fill="#fff" d="M396.18 158c40.11.43 80.23.38 120.32 1.17 2.9 19.2 5.69 38.43 8.77 57.61 3.06 19.4 5.66 38.86 8.9 58.23-50.87-.03-101.74-1.06-152.62-.98 4.96-38.67 9.64-77.37 14.63-116.03z"/><path d="M428.84 166.89c18.82-7.54 40.73-7.29 59.29.9 11.93 5.14 21.93 14.44 28.17 25.81 5.23 9.25 7.49 19.84 8.65 30.31 1.3 10.79 1.12 21.77-.39 32.53-4.2 7.81-13.49 12.94-22.35 11.36-7.02-1.64-11.17-8.41-13.15-14.86 1.18-9.93 2.36-20 1.32-30-.49-8.46-2.12-17.24-6.93-24.38-2.14-3.3-5.56-5.43-9.15-6.84 1.01 15.1-.14 30.21-.54 45.31-.9 6.92-.55 13.96-1.89 20.82-1.97 3.61-6.25 4.8-10 5.55-4.94 1.04-10.16.3-14.79-1.64-2.28-1.09-4.72-2.95-4.97-5.64-1.55-21.45-2.45-43.01-1.16-64.5-6.8 2.06-11.16 8.33-13.31 14.79-3.03 9.18-3.58 18.97-3.54 28.57-.04 6.02 1.15 11.97 1.17 17.98-1.69 6.09-5.87 12.13-12.14 14.07-8.85 2.12-18.38-2.92-22.86-10.59-1.24-4.32-1.25-8.91-1.25-13.38-.3-16.33 1.33-33.31 8.89-48.05 6.47-12.72 17.7-22.84 30.93-28.12z"/><path fill="#fff" d="M247.75 273.34c20.15-36.25 39.93-72.71 60.06-108.97.25 8.75 4.65 16.62 8.55 24.22 7.94 14.53 17.33 28.33 28.4 40.66 4.3 4.28 8.49 9.24 14.4 11.28 5.2 1.62 9.17-3.76 10.49-8.11 1.77-8.64-1.56-17.18-5.17-24.87-4.69-9.48-10.57-18.36-16.97-26.76 11.83-.3 25.34-.35 34.67-8.75-4.61 33.96-8.48 68.01-13.05 101.97-40.46.15-80.92-.59-121.38-.67z"/><path fill="#fff" d="M412.24 181.23c12.13-11.51 29.26-16.74 45.77-16.38 16.17-.12 32.85 5.13 44.75 16.39 10.17 9.56 16.23 22.91 18.2 36.62 1.88 12.26 1.99 24.81.58 37.13-3.4 6.84-11.84 11.19-19.4 9.44-5.17-1.63-8.19-6.82-9.75-11.69 1.72-14.93 2.77-30.32-1.24-44.99-1.96-6.99-5.73-14.11-12.43-17.55-2.4-1.07-5.08-2.29-7.73-1.49.8 22.75.04 45.53-1.95 68.18-6.11 4.57-14.76 4.92-21.48 1.5-.98-.55-2.07-1.3-2.27-2.48-1.24-16.59-1.82-33.23-1.64-49.87.07-5.69.59-11.39.26-17.08-.23-.24-.69-.72-.92-.97-6.18.82-11.69 4.67-14.89 9.97-4.95 8.07-6.18 17.71-6.97 26.97-.23 7.71-.34 15.47.77 23.12 1.32 5.83-2.55 11.42-7.04 14.74-7.77 4.28-17.7-.88-21.75-8.02-1.85-11.53-1.15-23.32.4-34.85 2.04-14.39 7.92-28.67 18.73-38.69z"/><path d="M293.24 209.24c3.71-3.73 7.88-7.69 13.32-8.45 12.88 13.23 25.81 26.92 34.32 43.48 2.69 5.87 5.59 12.88 2.76 19.24-3.76 7.58-14.68 10.2-21.59 5.37-8.41-5.6-12.88-15.23-16.54-24.3-5.48 8.51-11.35 17.69-20.68 22.36-5.74 3.05-13.94.75-16.35-5.52-2.29-6.97.28-14.35 3-20.81 5.38-11.59 12.79-22.27 21.76-31.37z"/><path d="M600.28 210.29c2.62-2.57 4.99-5.44 7.94-7.66 2.69.05 5.05 1.53 7.16 3.08 5.34 3.92 9.56 9.1 13.62 14.29 5.7 7.33 10.5 15.38 14.15 23.93 2.14 5.38 3.91 11.24 2.95 17.08-.63 5.32-5.92 9.38-11.17 9.16-4.32.19-8.19-2.19-11.4-4.84-6.19-5.29-10.75-12.15-14.95-19.05-4.13 9.42-8.9 19.78-18.36 24.91-7.94 4.64-19.95-.76-21.19-10.02-.46-5.34 1.61-10.48 3.93-15.18 6.93-13.4 17.04-24.79 27.32-35.7z"/><path fill="#fff" d="M294.5 212.52c3.16-3.32 6.67-6.4 10.89-8.3 10.72 11.14 21.49 22.47 29.48 35.79 3.33 5.46 6.35 11.43 6.75 17.92.33 7.95-9.93 12.52-16.38 9.02-6.55-3.37-10.39-10.12-13.7-16.41-2.22-3.92-2.95-8.52-5.55-12.23-5.28 6.94-9.24 15-15.79 20.95-2.86 2.67-6.17 5.17-10.14 5.8-4.54.64-9.51-3.17-9.15-7.96-.46-6.19 2.08-12.04 4.6-17.54 4.99-9.86 11.36-19.04 18.99-27.04z"/><path fill="#fff" d="M609.31 205.8c5.55 2.82 9.9 7.4 13.9 12.07 6.8 8.24 12.8 17.24 16.87 27.16 1.74 4.44 3.43 9.08 3.01 13.93.3 5.45-6.09 9.72-11.06 7.63-6.4-2.24-10.77-7.86-14.8-13.02-3.5-4.24-5.47-9.55-9.2-13.58-3.37 6.06-5.32 12.87-9.36 18.59-3.32 4.85-7.67 10.09-13.89 10.86-5.66.65-12.33-3.32-12.53-9.46.16-6.52 3.42-12.43 6.58-17.96 8.39-13.45 19.28-25.1 30.48-36.22z"/><path fill="#fff" d="M174.27 285.28c17.67.18 35.33.07 53 .33-6.66 11.81-13.43 23.57-19.62 35.63-7.56 1.41-15.29.29-22.91 1.12 3.54-3.9 5.98-9.01 5.43-14.39-.09-9.93-9.47-17.85-19.16-17.69 1.11-1.66 2.2-3.32 3.26-5z"/><path fill="#fff" d="M241.07 285.63c16.25.01 32.49.15 48.74.15-6.16 19.27-12.53 38.47-18.74 57.72-17.58-4.86-34.73-11.45-50.92-19.86 6.95-12.68 14.04-25.29 20.92-38.01z"/><path fill="#fff" d="M282.87 346.63c6.7-20.24 13.1-40.57 19.85-60.8 21.63.22 43.26.44 64.89.51-2.63 20.31-4.98 40.66-7.71 60.96-20.21 3.82-41.04 5.21-61.45 2.09-5.23-.69-10.39-1.81-15.58-2.76z"/><path fill="#fff" d="M379.97 286.38c22.72.07 45.44.27 68.17.32-.11 11.66-.12 23.32-.08 34.98-24.62 9.24-49.78 17.11-75.42 22.98 2.4-19.44 4.84-38.86 7.33-58.28z"/><path fill="#fff" d="M460.44 286.73c25.13.04 50.26.51 75.4.48 3.39 19.66 5.87 39.49 9.27 59.16-28.98-6.57-57.36-15.78-84.9-26.9.02-10.92.17-21.83.23-32.74z"/><path fill="#fff" d="M548.46 287.24c19.23.22 38.45.25 57.68.31 6.57 20.64 13.13 41.28 19.44 62.01-11.44 1.82-23 3.2-34.61 3.04-11.15-.19-22.25-1.58-33.21-3.57-3.17-20.59-6.46-41.16-9.3-61.79z"/><path fill="#fff" d="M619.1 287.64c18.18.15 36.35.17 54.53.28 6.65 12.82 13.42 25.57 20.05 38.39-17.89 8.82-36.72 15.64-56 20.7-6.19-19.79-12.48-39.55-18.58-59.37z"/><path fill="#fff" d="M687.45 287.99c17.49.38 34.98.22 52.46.32 1.51 2.51 3.05 5.01 4.69 7.45-5.32-2.42-11.75-3.07-17.09-.36-6.61 3.05-11.08 10.33-10.53 17.63-.08 4.52 2.35 8.55 4.97 12.05-5.21-.04-10.41-.27-15.58-.86-6.19-12.14-12.66-24.12-18.92-36.23z"/><path d="M252.21 291.25c10.49-2.47 21.79 6.05 22.08 16.84.8 7.41-3.61 14.84-10.24 18.06-5.24 2.57-11.71 2.49-16.85-.29-5.36-3.03-9.39-8.64-9.68-14.9-1.05-9.09 5.89-17.88 14.69-19.71z"/><path d="M325.53 292.67c11.19-5.18 25.53 4.05 25.5 16.31.85 9.36-6.89 18.32-16.15 19.27-8.69 1.3-17.72-4.56-20.06-13.02-3-8.84 2.17-19.13 10.71-22.56z"/><path d="M410.27 292.31c11.79-3.46 24.61 7.45 22.97 19.63-.48 11.19-12.85 19.74-23.51 16.19-9.84-2.53-15.94-14.14-12.45-23.69 1.9-5.93 7.02-10.54 12.99-12.13z"/><path d="M502.47 292.57c10.51-2.31 21.93 6.59 21.69 17.49.79 9.38-6.95 18.36-16.29 19.18-8.99 1.28-18.02-5.25-20.02-14.02-2.75-9.87 4.51-21.06 14.62-22.65z"/><path d="M584.22 293.15c4.55-.82 9.49-.42 13.49 2.06 6.25 3.47 9.91 10.87 9.21 17.94-.63 5.16-3.37 10.11-7.65 13.12-6.42 4.89-16.07 4.66-22.33-.4-5.98-4.62-8.58-12.88-6.31-20.1 2-6.15 7.26-11.15 13.59-12.62z"/><path d="M653.41 293.53c8.46-2.18 17.89 2.87 21.17 10.9 3.6 8.04.36 18.39-7.19 22.92-5.65 3.68-13.33 3.77-19.13.4-5.89-3.33-9.65-10.09-9.28-16.86.25-8.12 6.57-15.51 14.43-17.36z"/><path fill="#fff" d="M168.59 293.98c3.63-.33 7.49-.31 10.65 1.76 6.68 3.47 9.82 12.38 6.6 19.23-1.69 3.9-5.13 7.96-9.77 7.79-3.57.1-7.15.44-10.71.16-5.42-2.48-8.77-8.14-9.13-13.99 4.65-4.51 8.85-9.5 12.36-14.95z"/><path fill="#fff" d="M252.4 294.57c8.86-2.57 19.07 5.15 18.71 14.46.84 9.37-8.98 17.51-18.02 15.46-7.14-1.2-12.86-8.22-12.41-15.48.04-6.72 5.28-12.84 11.72-14.44z"/><path fill="#fff" d="M327.5 295.46c7.74-2.93 17.24 1.62 19.61 9.59 2.94 7.66-1.99 16.75-9.58 19.32-7.93 2.89-17.44-2.02-19.67-10.15-2.57-7.53 2.17-16.31 9.64-18.76z"/><path fill="#fff" d="M412.14 295.2c8.82-1.86 18.15 5.77 17.94 14.82.59 9.38-9.17 17.54-18.3 15.27-8.05-1.49-13.87-10.12-11.87-18.14 1.06-6.06 6.3-10.76 12.23-11.95z"/><path fill="#fff" d="M501.35 296.18c6.58-1.9 14.2.78 17.64 6.81 4.77 7.5 1.18 18.53-7.05 21.85-8.41 4.11-19.52-1.68-21.05-10.88-1.78-7.53 3.13-15.59 10.46-17.78z"/><path fill="#fff" d="M585.26 296.26c9.37-2.29 19.3 6.17 18.48 15.79-.25 8.74-9.02 15.95-17.66 14.29-8.65-.86-15.08-10.58-12.51-18.87 1.39-5.54 6.16-9.94 11.69-11.21z"/><path fill="#fff" d="M652.43 297.22c8.06-2.96 17.89 2.09 19.89 10.5 3.03 9.47-5.63 19.96-15.42 19.31-9.05-.21-16.68-9.69-14.3-18.55.99-5.17 4.97-9.42 9.83-11.26z"/><path fill="#fff" d="M720.49 315.55c-2.47-8.91 5.28-18.72 14.46-18.6 9.53-.8 18.04 9.37 15.45 18.61-.85 4.62-4.35 8.07-8.15 10.51-3.79-.09-7.57-.34-11.34-.53-5.57.38-9.23-5.19-10.42-9.99z"/><path fill="#fff" d="M753.82 308.12c8.15 9.31 19.8 14.74 31.38 18.49-12.47 1.08-25.01-.3-37.5-.42 4.95-4.56 7.15-11.46 6.12-18.07z"/><path fill="#fff" d="M128.44 323.3c8.66-3.22 17.36-6.67 24.9-12.12.63 4.53 2.81 8.69 6.1 11.86-10.33-.08-20.67.22-31 .26z"/><path fill="#fff" d="M428.65 341.55c9.5-3.17 18.84-6.86 28.31-10.06 38.36 14.88 77.89 28.13 119.01 32.46 28.09 2.82 56.43-2.07 83.26-10.33-12.57 8.69-25.39 17.04-38.04 25.63-50.05-.44-100.09-.59-150.14-.91.07-12.41.47-24.85.12-37.24-3.74-2.37-7.77-4.29-11.66-6.4-1.47-1.04-3.14-.05-4.66.24-6.5 1.93-13.08 3.59-19.54 5.61-1.13 1.86-.84 4.24-1.1 6.33-.21 10.45-.51 20.95.56 31.36-50.08-.55-100.18-.65-150.27-.82-15.34-9.31-30.49-18.93-45.87-28.16-6.48-4.2-13.26-7.92-19.57-12.37 1.16.45 2.3.93 3.44 1.46 27.28 13.57 57.15 21.9 87.49 24.53 12.98.47 26.03.43 38.89-1.59 27.2-3.68 53.81-10.91 79.77-19.74z"/><path fill="#fff" d="M175.68 334.83c8.26-.29 16.55-.32 24.8-.92-12.23 20.03-24.59 39.99-36.91 59.96-19.66-.55-39.32-.3-58.98-.45 8.73-15.92 17.52-31.81 26-47.86 1.13 3.15 2.41 6.61 5.55 8.3 5.37 3.62 13.52 1.18 16.03-4.79 2.3-4.71.47-10.19-3.03-13.76 4.82.14 9.64.04 14.46-.23-1.86 3.34-2.54 7.96.55 10.82 3.63 4.23 11.64 2.63 13.01-2.91 1.22-2.81-.27-5.65-1.48-8.16z"/><path fill="#fff" d="M140.4 336.55c5.96-1.55 11.81 5.41 9.02 10.98-2.2 5.4-10.37 6.56-13.71 1.65-3.82-4.32-.77-11.62 4.69-12.63z"/><path fill="#fff" d="M165.03 341.04c-.09-2.3 1.58-4.8 3.96-5.12 2.91-.59 5.89 2.14 5.31 5.12-.08 3.06-3.5 4.33-6.13 4.15-1.24-1.22-2.72-2.38-3.14-4.15z"/><path fill="#fff" d="M745.25 396.96c-10.72-20.04-21.55-40.03-32.19-60.12 3.74.2 7.49.37 11.24.29-2.46 2.77-3.88 6.93-1.77 10.34 2.41 4.68 9.83 5.14 12.74.71 2.58-3.07 1.61-7.35-.58-10.33 12.07.25 24.13 1.19 36.21 1.14.79 1.47 1.59 2.94 2.4 4.41-3.76-1.46-8.04-1.94-11.6.33-6.25 3.04-7.98 11.95-3.84 17.38 3.15 4.07 9.22 6.19 14.01 3.83 3.97-1.28 6.05-5.06 7.64-8.62 6.36 13.75 13.06 27.34 19.64 40.99-17.97-.13-35.93-.45-53.9-.35z"/><path fill="#fff" d="M437.73 343.18c6.72-1.89 13.41-3.87 20.15-5.68 3.44 1.85 6.92 3.65 10.33 5.57-.29 22.3-.19 44.6-.24 66.91-.02 7.59 2.42 16.79 10.14 19.95 9.48 3.49 20.31 4.01 29.71-.1 7.15-2.84 12.5-8.58 17.36-14.33-2.16 9.36-3.91 19.65-10.99 26.74-6.9 6.72-16.93 8.28-26.15 8.81-9.3.6-19.06-1.69-26.29-7.78-7.12-5.98-12.01-14.19-15.28-22.8-6.74-17.31-8.5-36.03-9.28-54.43-.13-7.62-.15-15.26.54-22.86z"/><path fill="#fff" d="M724.67 343.93c-.29-2.85 2.61-5.38 5.39-4.92 1.81.68 3.44 2.17 3.57 4.22.25 2.06-1.46 3.54-2.78 4.81-.82.01-2.45.01-3.27.02-1.14-1.24-2.92-2.24-2.91-4.13z"/><path fill="#fff" d="M766.58 345.55c6.22-.96 11.68 6.15 8.86 11.87-2.28 5.8-11.08 6.94-14.77 1.93-4.5-4.86-.61-13.55 5.91-13.8z"/><path d="M150.49 368.27c6.61-2.83 15 2.51 14.63 9.82.72 8.17-9.85 14.13-16.44 9.18-7.32-4.08-6.14-16.33 1.81-19z"/><path d="M749.45 368.66c6.49-2.07 13.8 4.47 12.34 11.18-.76 5-5.89 8.96-10.93 8.18-6.09-.28-10.5-7.18-8.5-12.89 1.15-3.12 3.84-5.68 7.09-6.47z"/><path fill="#fff" d="M151.4 371.39c5.53-2.62 12.56 3.2 10.32 9.13-1.56 5.48-9.4 6.97-12.99 2.65-3.43-3.59-1.82-9.9 2.67-11.78z"/><path fill="#fff" d="M749.35 372.07c4.96-2.25 10.93 3.02 9 8.18-1.34 5.06-8.72 6.4-11.76 2.14-2.97-3.29-1.3-8.84 2.76-10.32z"/><path fill="#fff" d="M54.91 398.52c35.72-2.51 71.54-1.46 107.32-1.66-3.72 8.32-7.35 16.67-10.97 25.03-34.1-.39-68.2-1.17-102.29-1.31-1.15 4.4-1.96 8.88-2.72 13.36-.41 3.92.86 7.75 1.23 11.64l-1.24.24c-.9-4.56-1.78-9.21-1.08-13.86.65-3.77 1.64-7.48 2.02-11.28-5.34-.48-10.72-.44-16.08-.44-.25.18-.75.55-1 .73-.2 8.07-.88 16.11-1.12 24.18-.3.13-.89.4-1.19.53.32-6.9-.01-13.82.77-20.7-.15-1.58.79-3.64-.75-4.77-2.78-.21-5.59-.31-8.37-.02-2.35 2.22-4.11 5.06-5.24 8.08-.92 5.61-.38 11.33-.71 16.97-.32.3-.95.9-1.27 1.2.04-7.3-1.39-15.34 2.3-22.02 5.03-7.11 8.88-15.56 16.66-20.2 6.93-4.84 15.64-4.92 23.73-5.7z"/><path fill="#fff" d="M746.63 400.18c31.1.24 62.24.02 93.3 1.8 9.3.61 18.66.95 27.86 2.63 9.62 1.93 17.4 9.21 22.03 17.62 2.25 4.14 6.05 7.7 6.48 12.64.56 4.99.46 10.05.22 15.07-.28.47-.82 1.41-1.1 1.89-.99-5.97.02-12.05-.55-18.05-.76-2.45-2.1-4.69-3.59-6.75-2.16-3.82-7.13-1.62-10.65-2.15-.92 8.61.94 17.25.24 25.88-2.03-1.28-1.26-3.81-1.5-5.79-.38-6.55-.36-13.12-.47-19.67-5.54-.58-11.16-.58-16.7-.16-.78 5.32 2.13 10.55 1.67 15.93-.38 3.15-.92 6.29-1.51 9.41l-1.52-.44c2.58-8.19 1.2-16.91-1.07-25-34.1.15-68.22.12-102.33.19-3.51-8.39-7.08-16.76-10.81-25.05z"/></svg>